<svg width="22" height="22" viewBox="0 0 22 22" fill="none" xmlns="http://www.w3.org/2000/svg">
<path d="M5.69745 1.57129C3.92865 1.57129 1.57153 3.92843 1.57153 5.69629C1.57153 7.97461 3.92868 12.1784 6.28582 14.5356C6.54039 14.7892 7.20982 15.4605 7.46439 15.7141C9.82153 18.0713 14.0248 20.4284 16.3028 20.4284C18.0716 20.4284 20.4287 18.0713 20.4287 16.3034C20.4287 14.5356 18.0716 12.1784 16.3028 12.1784C15.7144 12.1784 13.5816 13.3975 13.3572 13.357C11.4791 13.018 9.03519 10.5149 8.64296 8.64272C8.58828 8.38136 9.82153 6.28557 9.82153 5.69629C9.82153 3.92843 7.46437 1.57129 5.69745 1.57129Z" fill="#B4B9C5"/>
</svg>
