<svg width="22" height="22" viewBox="0 0 22 22" fill="none" xmlns="http://www.w3.org/2000/svg">
<path d="M5.45602 3.66504C3.59152 3.66504 2.1322 4.1362 1.87461 5.92828C1.79211 6.50211 1.9736 7.06679 2.39069 7.47471C2.59785 7.67729 2.81694 7.91837 3.10661 8.16221C3.83353 8.77546 4.76028 9.46478 5.62745 10.0817C8.01353 11.7775 9.89729 12.8317 11.0129 12.8317C12.1285 12.8317 14.0122 11.7775 16.3983 10.0817C17.2664 9.46478 18.1931 8.77454 18.9191 8.16221C19.2088 7.91837 19.4279 7.67821 19.6351 7.47471C20.0521 7.06679 20.2336 6.50211 20.1511 5.92828C19.8935 4.1362 18.4342 3.66504 16.5697 3.66504H5.45602ZM1.84619 9.30804V14.665C1.84619 16.6899 3.48794 18.3317 5.51286 18.3317H16.5129C18.5378 18.3317 20.1796 16.6899 20.1796 14.665V9.30804C19.4279 10.0221 18.5882 10.7591 17.4011 11.5997C14.8015 13.4404 12.4667 14.665 11.0129 14.665C9.55904 14.665 7.22429 13.4404 4.62462 11.5997C3.43662 10.7591 2.59786 10.0221 1.84619 9.30804Z" fill="#B4B9C5"/>
</svg>
