<svg width="41" height="18" viewBox="0 0 41 18" fill="none" xmlns="http://www.w3.org/2000/svg">
<mask id="mask0_498_1137" style="mask-type:luminance" maskUnits="userSpaceOnUse" x="0" y="0" width="41" height="18">
<path d="M40.5 0H0V18H40.5V0Z" fill="white"/>
</mask>
<g mask="url(#mask0_498_1137)">
<path d="M19.6352 3.05882C19.4146 3.28616 19.0194 3.52648 18.8053 3.54435C18.7756 3.54759 18.7246 3.58981 18.7164 3.69211C18.7032 3.92269 18.7032 4.68914 18.7164 5.22987C18.7312 5.81769 18.9107 6.26748 19.3586 6.26099C19.5661 6.25774 19.6995 6.13433 19.7966 6.05639C19.8427 6.02066 19.8757 5.99468 19.9267 5.99468C20.0058 5.99468 20.0799 6.06613 20.0815 6.28047C20.0815 6.39739 20.0453 6.54191 19.986 6.68968C19.8081 7.11512 19.3322 7.6591 18.5336 7.6802C17.5686 7.70943 17.1684 6.98683 17.1075 5.86153C17.0844 5.40686 17.1025 4.55111 17.068 3.87723C17.0564 3.65314 16.9873 3.53298 16.8111 3.50537C16.5674 3.48264 16.3928 3.42094 16.3813 3.22121C16.3681 3.01661 16.3895 2.80551 16.5937 2.6821C16.9395 2.45801 17.2771 2.17709 17.5192 1.92215C17.9226 1.49184 17.9901 1.05991 18.3211 1.05016C18.527 1.04529 18.7015 1.19468 18.7098 1.55679C18.7147 1.78738 18.6735 2.09915 18.6752 2.14462C18.6752 2.17547 18.6818 2.19495 18.7213 2.19495C18.8349 2.19171 19.3767 2.1365 19.515 2.13487C19.7719 2.13163 19.9152 2.21119 19.9168 2.53271" fill="#242424"/>
<path d="M18.4746 2.16673C18.4894 2.17323 19.1531 2.52397 21.4042 0.779995C24.2152 -1.29687 25.3843 1.36782 24.5017 1.9329C24.5017 1.9329 24.4226 2.0352 24.0324 1.9459C23.6717 1.8647 22.1254 0.812471 19.4972 3.17675C19.1876 3.20922 18.8781 3.24332 18.5685 3.27905" fill="#242424"/>
<path d="M13.7615 4.54069C13.8076 4.99211 13.8553 5.44353 13.9014 5.89495C13.9475 6.34313 14.0233 6.52499 14.3131 6.7507C14.4877 6.88386 14.7643 6.91633 14.7874 7.18101C14.8055 7.38562 14.7231 7.53013 14.4366 7.55612C14.155 7.5821 13.8388 7.58047 13.3234 7.63731C12.9891 7.67465 12.7257 7.73474 12.337 7.78345C12.1065 7.81268 12.006 7.67628 11.9813 7.50415C11.9467 7.25571 12.1114 7.09495 12.1806 6.97804C12.3683 6.63541 12.3551 6.33338 12.3206 6.0687C12.2415 5.45327 12.1625 4.83622 12.0818 4.2208C12.039 3.89116 11.8282 3.77262 11.6981 3.71579C11.5828 3.65733 11.4857 3.59888 11.4642 3.44624C11.4231 3.15233 11.7722 3.05977 12.1756 2.80645C12.696 2.47844 12.7981 2.35503 12.9842 2.33555C13.1966 2.31281 13.3234 2.38751 13.4403 2.68467C13.4914 2.8438 13.5424 2.99319 13.6198 2.9867C13.7351 2.97533 14.0941 2.20889 14.8417 2.15043C15.3654 2.10821 15.8676 2.39076 15.9269 3.28873C15.9681 3.91227 15.5696 4.59265 15.0443 4.63325C14.6886 4.66085 14.6342 4.43027 14.5173 4.0503C14.4218 3.73528 14.2884 3.5664 14.1583 3.57939C13.8438 3.60862 13.712 4.07303 13.7598 4.54231L13.7615 4.54069Z" fill="#242424"/>
<path d="M1.22239 4.92089C0.916094 4.2324 0.756359 4.0213 0.550517 3.89951C0.268923 3.73713 0.102602 3.58287 0.0350859 3.3669C-0.0917133 2.96744 0.140477 2.58422 0.889746 2.37313C1.80369 2.12306 2.72257 1.89248 3.64639 1.67976C3.90493 1.61805 4.25569 1.52225 4.43354 1.46054C5.32772 1.15526 5.89914 2.04836 5.9716 2.69951C6.04076 3.30357 5.91561 3.86541 5.60273 3.94498C5.37053 4.00506 5.19927 3.80208 4.99343 3.59911C4.50435 3.12171 4.17829 2.88788 3.53112 2.96257C3.43396 2.98693 3.33516 3.01129 3.238 3.03402C2.74563 3.15743 2.69787 3.4692 2.84772 4.01156C2.90865 4.19992 2.97123 4.38828 3.03216 4.57664" fill="#242424"/>
<path d="M2.92243 4.2872C2.92243 4.2872 3.60419 5.9987 3.83473 7.50398C4.07186 9.05635 3.33741 9.6734 2.42676 9.89261C1.44531 10.1264 0.197075 9.29505 0.3107 7.81738C0.384803 6.84633 1.67914 5.82171 2.42676 5.70317C3.36705 5.54728 4.12785 5.49857 4.91005 4.98869C5.50453 4.60547 5.85858 5.35242 5.38431 6.03605C4.9117 6.72455 4.13608 6.34782 3.33412 6.35269C2.55686 6.35107 1.17195 6.88693 1.11266 7.82225C1.04679 8.86474 2.24398 9.06284 2.20939 7.88233C2.19128 6.96812 1.08796 4.62171 1.08302 4.62333" fill="#242424"/>
<path d="M8.14488 3.25914C9.52485 3.01232 10.9015 3.80312 11.1436 5.53248C11.3725 7.16117 10.4256 8.10948 9.15104 8.33519C7.73978 8.58525 6.59859 7.74736 6.26266 6.30379C5.90861 4.78877 6.70069 3.5157 8.14488 3.25914ZM7.82706 5.34574C7.92093 5.81502 8.1103 6.3996 8.37872 6.80718C8.61091 7.14655 8.88756 7.31381 9.16092 7.26672C9.46557 7.21313 9.71588 6.92571 9.59402 6.20961C9.51333 5.7387 9.28278 5.12815 9.01436 4.7222C8.72783 4.29026 8.41824 4.1019 8.1597 4.14736C7.88634 4.19608 7.6558 4.48837 7.82706 5.34412V5.34574Z" fill="#242424"/>
<path d="M22.2236 5.12629C22.1346 5.12954 22.0951 5.1474 22.0935 5.2156C22.0852 5.529 22.3784 6.05511 23.1293 6.08596C23.7419 6.11195 24.1157 5.83752 24.3709 5.62318C24.4401 5.57284 24.5175 5.53874 24.5735 5.54361C24.6723 5.55011 24.7266 5.65078 24.7118 5.86025C24.6591 6.54713 23.8456 7.45809 22.5611 7.411C21.1235 7.36228 20.2623 6.34578 20.2524 4.88921C20.2409 3.43752 21.2899 2.17744 22.9004 2.23427C24.3577 2.29273 24.8007 3.41803 24.7513 4.08705C24.7266 4.44753 24.5257 4.64402 24.2524 4.77067C23.7023 5.01912 22.7044 5.10031 22.2269 5.12791L22.2236 5.12629ZM22.6945 3.0819C22.2203 3.06567 21.9123 3.54794 21.9008 4.03996C21.8959 4.24943 21.9601 4.37284 22.1034 4.37609C22.3471 4.38096 22.9086 4.25917 23.1375 4.00098C23.2034 3.92629 23.2363 3.84347 23.2413 3.73143C23.2577 3.37582 23.0371 3.09327 22.6945 3.08028V3.0819Z" fill="#242424"/>
<path d="M27.4349 2.82357C27.3163 3.91153 27.1977 4.99948 27.0792 6.08744C27.0331 6.5145 27.0857 6.68176 27.2043 6.86525C27.3179 7.04874 27.4744 7.10557 27.4447 7.35239C27.4217 7.54563 27.3114 7.66579 27.0215 7.63494C26.7548 7.60733 26.4122 7.544 26.1619 7.52127C25.8309 7.49042 25.5279 7.49529 25.1656 7.46768C24.9384 7.45145 24.8626 7.30368 24.8742 7.13805C24.8923 6.89935 25.085 6.78081 25.1805 6.68663C25.4291 6.40246 25.4769 6.11667 25.4983 5.86498C25.6053 4.56592 25.714 3.26687 25.8227 1.9662C25.8458 1.70314 25.6679 1.54725 25.5477 1.47093C25.4439 1.39461 25.3484 1.31992 25.36 1.17377C25.3797 0.915586 25.7502 0.887982 26.2212 0.745086C26.7482 0.592447 27.1319 0.408956 27.3789 0.433313C27.5864 0.454423 27.728 0.571338 27.7016 0.810038C27.6325 1.43034 27.588 1.42059 27.4332 2.82195L27.4349 2.82357Z" fill="#242424"/>
<path d="M30.1882 5.24228C30.1257 5.64661 30.0614 6.04931 29.9989 6.45202C29.933 6.87584 29.9775 7.04471 30.0878 7.2347C30.1932 7.42306 30.3463 7.48639 30.3052 7.73159C30.2739 7.92482 30.1586 8.03849 29.8688 7.99627C29.5938 7.95405 29.2727 7.87935 29.0158 7.84525C28.6815 7.79979 28.4164 7.79492 28.0211 7.74783C27.7955 7.72022 27.7264 7.57083 27.7461 7.40682C27.7741 7.16975 27.9734 7.05933 28.0738 6.96839C28.3357 6.69559 28.3982 6.41305 28.4295 6.16136C28.4987 5.63037 28.5679 5.09938 28.637 4.57002C28.6815 4.22577 28.5547 4.0098 28.4312 3.90101C28.3357 3.8052 28.2286 3.71914 28.2484 3.56C28.2846 3.26447 28.6469 3.28071 29.108 3.15892C29.6267 3.02414 30.0697 2.86988 30.2541 2.89586C30.4797 2.92834 30.5851 3.04363 30.5489 3.27908C30.4962 3.61197 30.3513 4.1868 30.185 5.24228H30.1882Z" fill="#242424"/>
<path d="M32.8597 6.28451C32.7707 6.27152 32.7296 6.28451 32.7164 6.35108C32.6555 6.65798 32.8564 7.2247 33.5941 7.37571C34.1935 7.50074 34.6101 7.28802 34.8983 7.11752C34.9741 7.08018 35.0564 7.05744 35.1124 7.07043C35.2079 7.09317 35.2458 7.20196 35.1947 7.40494C35.0268 8.07395 34.0717 8.84202 32.8103 8.59033C31.399 8.31265 30.7172 7.17111 30.9527 5.73403C31.1849 4.3002 32.4364 3.22524 34.0173 3.54026C35.4467 3.83092 35.6921 5.01306 35.5307 5.66421C35.445 6.01495 35.2145 6.17733 34.923 6.2569C34.3384 6.41441 33.3389 6.33322 32.863 6.28288L32.8597 6.28451ZM33.6715 4.34242C33.2071 4.25149 32.8201 4.67693 32.7246 5.16083C32.6835 5.36705 32.7246 5.49858 32.8679 5.52456C33.1067 5.5684 33.683 5.53917 33.9531 5.31996C34.0305 5.25663 34.0766 5.18031 34.1013 5.07152C34.1787 4.72402 34.0074 4.409 33.6715 4.34242Z" fill="#242424"/>
<path d="M35.8547 8.27887C36.0639 7.46372 36.273 6.65019 36.4854 5.83503C36.5661 5.52813 36.4113 5.34951 36.3109 5.2537C36.2236 5.16277 36.1561 5.07671 36.1923 4.93381C36.2615 4.65939 36.6188 4.69836 37.0881 4.61392C37.6925 4.5035 37.8308 4.43043 38.0136 4.47752C38.2195 4.53111 38.31 4.64152 38.31 4.9468C38.3002 5.10594 38.2936 5.25533 38.3677 5.27644C38.4796 5.30729 39.0906 4.75194 39.8102 4.96142C40.3141 5.10756 40.6797 5.533 40.4113 6.3514C40.2252 6.91811 39.6093 7.38253 39.1038 7.23476C38.7612 7.13571 38.7942 6.91162 38.8222 6.53327C38.8452 6.21987 38.7826 6.02502 38.6575 5.98929C38.3528 5.90485 38.063 6.27184 37.9395 6.70377C37.7781 7.26561 37.6184 7.82745 37.4587 8.38929" fill="#242424"/>
<path d="M35.8582 8.2793C35.8582 8.2793 35.1435 11.3824 36.6602 12.0871C38.3069 12.8698 39.738 11.8647 39.3197 10.6842C38.88 9.50203 37.4852 9.72612 35.4301 9.65792C33.3683 9.59134 31.827 9.63681 31.1749 8.93207C30.6298 8.34587 30.5574 8.34425 30.2379 8.59107C29.9118 8.84601 29.2894 10.7556 31.2556 11.0024C33.1971 11.2379 36.5252 10.0785 37.7915 10.4568C38.9459 10.793 38.3415 11.5675 37.5791 11.2298C36.815 10.8985 37.3189 8.88336 37.4671 8.35886" fill="#242424"/>
<path d="M30.2116 0.598028C30.6628 0.659733 30.9724 1.0121 30.8983 1.47326C30.7945 2.10006 30.0551 2.51088 29.4047 2.42644C28.9337 2.36474 28.746 2.06596 28.7937 1.68923C28.8695 1.07543 29.5611 0.507094 30.2116 0.598028Z" fill="#242424"/>
<path d="M11.3886 13.6698C12.0506 13.9133 12.711 14.1634 13.3713 14.4118C13.1391 14.5239 12.9382 14.4167 12.7307 14.3648C12.2334 14.2413 11.7526 14.0741 11.3047 13.8289C11.2355 13.7915 11.1433 13.7493 11.2042 13.6551C11.2602 13.5675 11.3343 13.6503 11.3886 13.6698Z" fill="#242424"/>
<path d="M17.6851 13.2034C17.3886 13.0653 17.1713 12.8266 16.8963 12.6691C16.6987 13.0118 16.6196 13.028 16.2837 12.812C16.1997 12.7584 16.1091 12.7146 16.0218 12.6643C15.9428 12.5896 15.8621 12.5132 15.6497 12.5246C15.7814 12.6269 15.8588 12.687 15.9362 12.7471C16.0037 12.8786 16.091 13.015 15.9395 13.1417C15.7831 13.2732 15.6431 13.192 15.4998 13.1027C15.0618 12.825 14.6353 12.5311 14.0787 12.2745C14.1923 12.497 14.3059 12.622 14.4229 12.7438C14.5497 12.8786 14.6238 13.0247 14.4739 13.1806C14.3372 13.3235 14.1841 13.2716 14.0326 13.1871C13.6983 13.002 13.364 12.8185 13.0248 12.6431C12.9408 12.6009 12.8552 12.5279 12.7366 12.5766C12.8354 12.7487 12.9836 12.8818 13.1219 13.0215C13.1977 13.0978 13.2932 13.1855 13.201 13.2975C13.0989 13.4226 13.0017 13.3268 12.9144 13.2667C12.6823 13.1043 12.4155 13.0134 12.152 12.9127C12.0548 12.8754 11.8852 12.8624 11.9396 12.7276C11.9857 12.6107 12.1289 12.6821 12.2327 12.7097C12.2607 12.7162 12.2887 12.7178 12.3546 12.7276C12.2953 12.5587 12.1487 12.4093 12.2821 12.2404C12.4072 12.0829 12.5769 12.0391 12.7695 12.0732C12.9474 12.1057 13.1219 12.1511 13.2981 12.1901C13.3377 11.7176 13.555 11.5698 14.0474 11.6965C14.1824 11.7306 14.3158 11.789 14.441 11.8491C14.6485 11.9498 14.8296 12.1057 15.0173 11.789C15.1194 11.6169 15.3516 11.6883 15.5229 11.7582C15.6398 11.8069 15.7139 11.8182 15.8028 11.703C15.9115 11.5649 16.0778 11.5877 16.2211 11.6542C16.7975 11.9238 17.2783 12.3054 17.6505 12.8055C17.7378 12.9224 17.7592 13.0491 17.6884 13.2001L17.6851 13.2034Z" fill="#242424"/>
<path d="M23.4378 12.1698C23.479 12.3126 23.4988 12.4848 23.3275 12.5497C23.176 12.6066 23.1068 12.4458 23.0344 12.3484C22.9257 12.2006 22.8582 12.0236 22.7034 11.8937C22.6276 12.0057 22.7083 12.0886 22.7215 12.1762C22.7429 12.3126 22.7281 12.4393 22.5733 12.488C22.4284 12.5335 22.3526 12.4361 22.2901 12.3273C22.1468 12.0756 21.9805 11.8401 21.6989 11.5819C21.7285 11.9018 21.7466 12.1373 21.7746 12.3744C21.7927 12.5254 21.7598 12.6504 21.6067 12.7121C21.437 12.7787 21.3382 12.6699 21.2608 12.5497C21.1703 12.4149 21.0929 12.2721 20.976 12.0756C20.9562 12.35 20.9348 12.5562 20.9282 12.7641C20.9233 12.8924 20.9447 13.0547 20.7767 13.0661C20.5807 13.0807 20.5363 12.9037 20.5363 12.7592C20.5363 12.4344 20.4671 12.1259 20.3469 11.8255C20.2926 11.6907 20.225 11.5608 20.1526 11.4342C20.1065 11.3546 19.9879 11.2848 20.1262 11.1987C20.23 11.1338 20.2926 11.2149 20.3486 11.2864C20.3782 11.3237 20.4078 11.3611 20.4375 11.4001C20.6367 11.1971 20.9233 11.2409 21.2954 11.5316C21.5194 11.0899 21.6133 11.0623 22.0398 11.3627C22.1517 11.4423 22.1896 11.4309 22.2703 11.3302C22.3872 11.1841 22.5535 11.1873 22.7083 11.2815C23.0624 11.4959 23.3292 11.78 23.4428 12.1746L23.4378 12.1698Z" fill="#242424"/>
<path d="M28.555 14.8861C28.5319 14.8406 28.583 14.8195 28.6143 14.8033C28.8876 14.6587 29.1248 14.4574 29.4179 14.3453C29.4887 14.3194 29.5562 14.282 29.6007 14.36C29.6386 14.4265 29.5628 14.4623 29.5183 14.4915C29.245 14.6717 28.9766 14.8601 28.6324 14.9494C28.611 14.9315 28.5715 14.9137 28.5566 14.8845L28.555 14.8861Z" fill="#242424"/>
<path d="M30.4546 14.366C30.2059 14.6681 29.9029 14.9003 29.5423 15.0757C29.0993 15.2932 28.6333 15.4491 28.1606 15.5839C28.0635 15.6115 27.963 15.6261 27.8593 15.6456C27.8181 15.6424 27.7539 15.6619 27.7374 15.6001C27.716 15.5238 27.7901 15.5027 27.8428 15.4832C28.2067 15.3436 28.5756 15.2104 28.9395 15.0675C29.4385 14.8694 29.921 14.647 30.2635 14.2215C30.3228 14.1485 30.3986 14.09 30.4941 14.1679C30.5863 14.2443 30.504 14.3092 30.4562 14.366H30.4546Z" fill="#242424"/>
<path d="M17.6811 11.1412C17.6267 11.1444 17.5921 11.1866 17.6037 11.2419C17.6135 11.2938 17.6547 11.3263 17.7041 11.3344C17.7667 11.3425 17.7897 11.3019 17.793 11.2467C17.7848 11.1834 17.7502 11.1347 17.6827 11.1395L17.6811 11.1412ZM17.9643 11.4676C17.9099 11.4513 17.8688 11.4724 17.8523 11.5228C17.8358 11.5731 17.8523 11.6137 17.9099 11.6283C17.961 11.6413 18.0055 11.6332 18.0269 11.5715C18.0269 11.5293 18.0203 11.4838 17.9659 11.4659L17.9643 11.4676ZM18.096 11.1087C18.045 11.0957 17.9956 11.1038 17.9791 11.159C17.9626 11.2126 17.9956 11.25 18.045 11.2695C18.101 11.2922 18.1388 11.2727 18.1586 11.211C18.1685 11.1655 18.1537 11.1233 18.0977 11.1087H18.096ZM18.236 11.5682C18.1701 11.5682 18.1388 11.6007 18.1421 11.6559C18.1454 11.6916 18.1586 11.7339 18.2097 11.7371C18.2689 11.742 18.3068 11.7063 18.3167 11.6592C18.3315 11.5991 18.2821 11.5796 18.236 11.5682ZM18.5127 11.2857C18.4418 11.263 18.3645 11.211 18.3282 11.3263C18.3118 11.3766 18.3447 11.4286 18.3974 11.4318C18.5061 11.44 18.5192 11.3653 18.5143 11.2857H18.5127ZM18.5127 11.2824V11.2857C18.5127 11.2857 18.516 11.2857 18.5176 11.2857V11.2808H18.5127V11.2824ZM18.4336 11.8264C18.3727 11.8329 18.3233 11.8751 18.3397 11.9433C18.3513 11.9904 18.3941 12.0164 18.4517 12.018C18.5061 12.005 18.5275 11.9661 18.5242 11.9141C18.5209 11.8605 18.4863 11.8183 18.4336 11.8264ZM18.623 11.1054C18.4731 11.1006 18.5192 11.2061 18.5192 11.2824C18.6016 11.2857 18.707 11.336 18.7333 11.2126C18.7465 11.1558 18.6905 11.1071 18.623 11.1054ZM18.7564 11.6835C18.7481 11.6527 18.7119 11.6137 18.6806 11.6088C18.6279 11.5991 18.5851 11.6316 18.5802 11.6868C18.5752 11.7469 18.6263 11.7631 18.6724 11.7842C18.7234 11.7663 18.7712 11.7404 18.7564 11.6835ZM18.977 12.5636C18.9375 12.5669 18.8931 12.5766 18.8931 12.627C18.8931 12.6968 18.9342 12.7309 19.005 12.7309C19.0594 12.7309 19.0594 12.6854 19.0709 12.6513C19.066 12.5961 19.038 12.5604 18.977 12.5636ZM19.0248 11.6088C18.9705 11.6218 18.9342 11.6478 18.9359 11.7046C18.9392 11.7598 18.9737 11.7988 19.0281 11.7939C19.0775 11.7891 19.117 11.755 19.1187 11.6981C19.1187 11.6381 19.0742 11.6202 19.0248 11.6072V11.6088ZM19.1335 12.8754C19.0742 12.8803 19.0544 12.9257 19.0643 12.9761C19.0758 13.0329 19.122 13.0443 19.1746 13.0345C19.2175 13.0264 19.2405 13.0021 19.2356 12.9582C19.2175 12.9144 19.1878 12.8738 19.1335 12.877V12.8754ZM19.3607 12.1544C19.3492 12.0911 19.3047 12.0473 19.2356 12.057C19.1845 12.0651 19.1499 12.1057 19.1467 12.1609C19.1615 12.2259 19.2076 12.2681 19.2735 12.2567C19.3179 12.2502 19.3706 12.2145 19.3591 12.1544H19.3607ZM19.3723 12.9777C19.3064 12.981 19.2982 13.0297 19.3031 13.08C19.308 13.1239 19.3393 13.1466 19.3838 13.145C19.4381 13.1417 19.4776 13.1174 19.4793 13.0589C19.4612 13.0102 19.4282 12.9745 19.3706 12.9793L19.3723 12.9777ZM19.3723 12.9777C19.3064 12.981 19.2982 13.0297 19.3031 13.08C19.308 13.1239 19.3393 13.1466 19.3838 13.145C19.4381 13.1417 19.4776 13.1174 19.4793 13.0589C19.4612 13.0102 19.4282 12.9745 19.3706 12.9793L19.3723 12.9777ZM19.3607 12.1544C19.3492 12.0911 19.3047 12.0473 19.2356 12.057C19.1845 12.0651 19.1499 12.1057 19.1467 12.1609C19.1615 12.2259 19.2076 12.2681 19.2735 12.2567C19.3179 12.2502 19.3706 12.2145 19.3591 12.1544H19.3607ZM19.1335 12.8754C19.0742 12.8803 19.0544 12.9257 19.0643 12.9761C19.0758 13.0329 19.122 13.0443 19.1746 13.0345C19.2175 13.0264 19.2405 13.0021 19.2356 12.9582C19.2175 12.9144 19.1878 12.8738 19.1335 12.877V12.8754ZM19.0248 11.6088C18.9705 11.6218 18.9342 11.6478 18.9359 11.7046C18.9392 11.7598 18.9737 11.7988 19.0281 11.7939C19.0775 11.7891 19.117 11.755 19.1187 11.6981C19.1187 11.6381 19.0742 11.6202 19.0248 11.6072V11.6088ZM18.977 12.5636C18.9375 12.5669 18.8931 12.5766 18.8931 12.627C18.8931 12.6968 18.9342 12.7309 19.005 12.7309C19.0594 12.7309 19.0594 12.6854 19.0709 12.6513C19.066 12.5961 19.038 12.5604 18.977 12.5636ZM18.7564 11.6835C18.7481 11.6527 18.7119 11.6137 18.6806 11.6088C18.6279 11.5991 18.5851 11.6316 18.5802 11.6868C18.5752 11.7469 18.6263 11.7631 18.6724 11.7842C18.7234 11.7663 18.7712 11.7404 18.7564 11.6835ZM18.623 11.1054C18.4731 11.1006 18.5192 11.2061 18.5192 11.2824C18.6016 11.2857 18.707 11.336 18.7333 11.2126C18.7465 11.1558 18.6905 11.1071 18.623 11.1054ZM18.4336 11.8264C18.3727 11.8329 18.3233 11.8751 18.3397 11.9433C18.3513 11.9904 18.3941 12.0164 18.4517 12.018C18.5061 12.005 18.5275 11.9661 18.5242 11.9141C18.5209 11.8605 18.4863 11.8183 18.4336 11.8264ZM18.5127 11.2824V11.2857C18.5127 11.2857 18.516 11.2857 18.5176 11.2857V11.2808H18.5127V11.2824ZM18.5127 11.2857C18.4418 11.263 18.3645 11.211 18.3282 11.3263C18.3118 11.3766 18.3447 11.4286 18.3974 11.4318C18.5061 11.44 18.5192 11.3653 18.5143 11.2857H18.5127ZM18.236 11.5682C18.1701 11.5682 18.1388 11.6007 18.1421 11.6559C18.1454 11.6916 18.1586 11.7339 18.2097 11.7371C18.2689 11.742 18.3068 11.7063 18.3167 11.6592C18.3315 11.5991 18.2821 11.5796 18.236 11.5682ZM18.096 11.1087C18.045 11.0957 17.9956 11.1038 17.9791 11.159C17.9626 11.2126 17.9956 11.25 18.045 11.2695C18.101 11.2922 18.1388 11.2727 18.1586 11.211C18.1685 11.1655 18.1537 11.1233 18.0977 11.1087H18.096ZM17.9643 11.4676C17.9099 11.4513 17.8688 11.4724 17.8523 11.5228C17.8358 11.5731 17.8523 11.6137 17.9099 11.6283C17.961 11.6413 18.0055 11.6332 18.0269 11.5715C18.0269 11.5293 18.0203 11.4838 17.9659 11.4659L17.9643 11.4676ZM17.6811 11.1412C17.6267 11.1444 17.5921 11.1866 17.6037 11.2419C17.6135 11.2938 17.6547 11.3263 17.7041 11.3344C17.7667 11.3425 17.7897 11.3019 17.793 11.2467C17.7848 11.1834 17.7502 11.1347 17.6827 11.1395L17.6811 11.1412ZM17.6811 11.1412C17.6267 11.1444 17.5921 11.1866 17.6037 11.2419C17.6135 11.2938 17.6547 11.3263 17.7041 11.3344C17.7667 11.3425 17.7897 11.3019 17.793 11.2467C17.7848 11.1834 17.7502 11.1347 17.6827 11.1395L17.6811 11.1412ZM17.9643 11.4676C17.9099 11.4513 17.8688 11.4724 17.8523 11.5228C17.8358 11.5731 17.8523 11.6137 17.9099 11.6283C17.961 11.6413 18.0055 11.6332 18.0269 11.5715C18.0269 11.5293 18.0203 11.4838 17.9659 11.4659L17.9643 11.4676ZM18.096 11.1087C18.045 11.0957 17.9956 11.1038 17.9791 11.159C17.9626 11.2126 17.9956 11.25 18.045 11.2695C18.101 11.2922 18.1388 11.2727 18.1586 11.211C18.1685 11.1655 18.1537 11.1233 18.0977 11.1087H18.096ZM18.236 11.5682C18.1701 11.5682 18.1388 11.6007 18.1421 11.6559C18.1454 11.6916 18.1586 11.7339 18.2097 11.7371C18.2689 11.742 18.3068 11.7063 18.3167 11.6592C18.3315 11.5991 18.2821 11.5796 18.236 11.5682ZM18.5127 11.2857C18.4418 11.263 18.3645 11.211 18.3282 11.3263C18.3118 11.3766 18.3447 11.4286 18.3974 11.4318C18.5061 11.44 18.5192 11.3653 18.5143 11.2857H18.5127ZM18.5127 11.2824V11.2857C18.5127 11.2857 18.516 11.2857 18.5176 11.2857V11.2808H18.5127V11.2824ZM18.4336 11.8264C18.3727 11.8329 18.3233 11.8751 18.3397 11.9433C18.3513 11.9904 18.3941 12.0164 18.4517 12.018C18.5061 12.005 18.5275 11.9661 18.5242 11.9141C18.5209 11.8605 18.4863 11.8183 18.4336 11.8264ZM18.623 11.1054C18.4731 11.1006 18.5192 11.2061 18.5192 11.2824C18.6016 11.2857 18.707 11.336 18.7333 11.2126C18.7465 11.1558 18.6905 11.1071 18.623 11.1054ZM18.7564 11.6835C18.7481 11.6527 18.7119 11.6137 18.6806 11.6088C18.6279 11.5991 18.5851 11.6316 18.5802 11.6868C18.5752 11.7469 18.6263 11.7631 18.6724 11.7842C18.7234 11.7663 18.7712 11.7404 18.7564 11.6835ZM18.977 12.5636C18.9375 12.5669 18.8931 12.5766 18.8931 12.627C18.8931 12.6968 18.9342 12.7309 19.005 12.7309C19.0594 12.7309 19.0594 12.6854 19.0709 12.6513C19.066 12.5961 19.038 12.5604 18.977 12.5636ZM19.0248 11.6088C18.9705 11.6218 18.9342 11.6478 18.9359 11.7046C18.9392 11.7598 18.9737 11.7988 19.0281 11.7939C19.0775 11.7891 19.117 11.755 19.1187 11.6981C19.1187 11.6381 19.0742 11.6202 19.0248 11.6072V11.6088ZM19.1335 12.8754C19.0742 12.8803 19.0544 12.9257 19.0643 12.9761C19.0758 13.0329 19.122 13.0443 19.1746 13.0345C19.2175 13.0264 19.2405 13.0021 19.2356 12.9582C19.2175 12.9144 19.1878 12.8738 19.1335 12.877V12.8754ZM19.3607 12.1544C19.3492 12.0911 19.3047 12.0473 19.2356 12.057C19.1845 12.0651 19.1499 12.1057 19.1467 12.1609C19.1615 12.2259 19.2076 12.2681 19.2735 12.2567C19.3179 12.2502 19.3706 12.2145 19.3591 12.1544H19.3607ZM19.3723 12.9777C19.3064 12.981 19.2982 13.0297 19.3031 13.08C19.308 13.1239 19.3393 13.1466 19.3838 13.145C19.4381 13.1417 19.4776 13.1174 19.4793 13.0589C19.4612 13.0102 19.4282 12.9745 19.3706 12.9793L19.3723 12.9777ZM24.4393 11.4594C24.3899 11.4594 24.3701 11.4952 24.3685 11.5341C24.3652 11.5861 24.3833 11.6316 24.4475 11.6267C24.5035 11.6234 24.5332 11.5845 24.5447 11.5358C24.5348 11.4806 24.4969 11.4562 24.4409 11.4594H24.4393ZM24.6945 11.867C24.6336 11.8621 24.5924 11.8995 24.5875 11.9466C24.5809 12.0099 24.6303 12.0521 24.6978 12.0603C24.7555 12.0684 24.79 12.0359 24.8049 11.9677C24.79 11.9239 24.767 11.8719 24.6945 11.867ZM19.3723 12.9777C19.3064 12.981 19.2982 13.0297 19.3031 13.08C19.308 13.1239 19.3393 13.1466 19.3838 13.145C19.4381 13.1417 19.4776 13.1174 19.4793 13.0589C19.4612 13.0102 19.4282 12.9745 19.3706 12.9793L19.3723 12.9777ZM19.3607 12.1544C19.3492 12.0911 19.3047 12.0473 19.2356 12.057C19.1845 12.0651 19.1499 12.1057 19.1467 12.1609C19.1615 12.2259 19.2076 12.2681 19.2735 12.2567C19.3179 12.2502 19.3706 12.2145 19.3591 12.1544H19.3607ZM19.1335 12.8754C19.0742 12.8803 19.0544 12.9257 19.0643 12.9761C19.0758 13.0329 19.122 13.0443 19.1746 13.0345C19.2175 13.0264 19.2405 13.0021 19.2356 12.9582C19.2175 12.9144 19.1878 12.8738 19.1335 12.877V12.8754ZM19.0248 11.6088C18.9705 11.6218 18.9342 11.6478 18.9359 11.7046C18.9392 11.7598 18.9737 11.7988 19.0281 11.7939C19.0775 11.7891 19.117 11.755 19.1187 11.6981C19.1187 11.6381 19.0742 11.6202 19.0248 11.6072V11.6088ZM18.977 12.5636C18.9375 12.5669 18.8931 12.5766 18.8931 12.627C18.8931 12.6968 18.9342 12.7309 19.005 12.7309C19.0594 12.7309 19.0594 12.6854 19.0709 12.6513C19.066 12.5961 19.038 12.5604 18.977 12.5636ZM18.7564 11.6835C18.7481 11.6527 18.7119 11.6137 18.6806 11.6088C18.6279 11.5991 18.5851 11.6316 18.5802 11.6868C18.5752 11.7469 18.6263 11.7631 18.6724 11.7842C18.7234 11.7663 18.7712 11.7404 18.7564 11.6835ZM18.623 11.1054C18.4731 11.1006 18.5192 11.2061 18.5192 11.2824C18.6016 11.2857 18.707 11.336 18.7333 11.2126C18.7465 11.1558 18.6905 11.1071 18.623 11.1054ZM18.4336 11.8264C18.3727 11.8329 18.3233 11.8751 18.3397 11.9433C18.3513 11.9904 18.3941 12.0164 18.4517 12.018C18.5061 12.005 18.5275 11.9661 18.5242 11.9141C18.5209 11.8605 18.4863 11.8183 18.4336 11.8264ZM18.5127 11.2824V11.2857C18.5127 11.2857 18.516 11.2857 18.5176 11.2857V11.2808H18.5127V11.2824ZM18.5127 11.2857C18.4418 11.263 18.3645 11.211 18.3282 11.3263C18.3118 11.3766 18.3447 11.4286 18.3974 11.4318C18.5061 11.44 18.5192 11.3653 18.5143 11.2857H18.5127ZM18.236 11.5682C18.1701 11.5682 18.1388 11.6007 18.1421 11.6559C18.1454 11.6916 18.1586 11.7339 18.2097 11.7371C18.2689 11.742 18.3068 11.7063 18.3167 11.6592C18.3315 11.5991 18.2821 11.5796 18.236 11.5682ZM18.096 11.1087C18.045 11.0957 17.9956 11.1038 17.9791 11.159C17.9626 11.2126 17.9956 11.25 18.045 11.2695C18.101 11.2922 18.1388 11.2727 18.1586 11.211C18.1685 11.1655 18.1537 11.1233 18.0977 11.1087H18.096ZM17.9643 11.4676C17.9099 11.4513 17.8688 11.4724 17.8523 11.5228C17.8358 11.5731 17.8523 11.6137 17.9099 11.6283C17.961 11.6413 18.0055 11.6332 18.0269 11.5715C18.0269 11.5293 18.0203 11.4838 17.9659 11.4659L17.9643 11.4676ZM17.6811 11.1412C17.6267 11.1444 17.5921 11.1866 17.6037 11.2419C17.6135 11.2938 17.6547 11.3263 17.7041 11.3344C17.7667 11.3425 17.7897 11.3019 17.793 11.2467C17.7848 11.1834 17.7502 11.1347 17.6827 11.1395L17.6811 11.1412ZM24.6945 11.867C24.6336 11.8621 24.5924 11.8995 24.5875 11.9466C24.5809 12.0099 24.6303 12.0521 24.6978 12.0603C24.7555 12.0684 24.79 12.0359 24.8049 11.9677C24.79 11.9239 24.767 11.8719 24.6945 11.867ZM24.4393 11.4594C24.3899 11.4594 24.3701 11.4952 24.3685 11.5341C24.3652 11.5861 24.3833 11.6316 24.4475 11.6267C24.5035 11.6234 24.5332 11.5845 24.5447 11.5358C24.5348 11.4806 24.4969 11.4562 24.4409 11.4594H24.4393ZM17.6811 11.1412C17.6267 11.1444 17.5921 11.1866 17.6037 11.2419C17.6135 11.2938 17.6547 11.3263 17.7041 11.3344C17.7667 11.3425 17.7897 11.3019 17.793 11.2467C17.7848 11.1834 17.7502 11.1347 17.6827 11.1395L17.6811 11.1412ZM17.9643 11.4676C17.9099 11.4513 17.8688 11.4724 17.8523 11.5228C17.8358 11.5731 17.8523 11.6137 17.9099 11.6283C17.961 11.6413 18.0055 11.6332 18.0269 11.5715C18.0269 11.5293 18.0203 11.4838 17.9659 11.4659L17.9643 11.4676ZM18.096 11.1087C18.045 11.0957 17.9956 11.1038 17.9791 11.159C17.9626 11.2126 17.9956 11.25 18.045 11.2695C18.101 11.2922 18.1388 11.2727 18.1586 11.211C18.1685 11.1655 18.1537 11.1233 18.0977 11.1087H18.096ZM18.236 11.5682C18.1701 11.5682 18.1388 11.6007 18.1421 11.6559C18.1454 11.6916 18.1586 11.7339 18.2097 11.7371C18.2689 11.742 18.3068 11.7063 18.3167 11.6592C18.3315 11.5991 18.2821 11.5796 18.236 11.5682ZM18.5127 11.2857C18.4418 11.263 18.3645 11.211 18.3282 11.3263C18.3118 11.3766 18.3447 11.4286 18.3974 11.4318C18.5061 11.44 18.5192 11.3653 18.5143 11.2857H18.5127ZM18.5127 11.2824V11.2857C18.5127 11.2857 18.516 11.2857 18.5176 11.2857V11.2808H18.5127V11.2824ZM18.4336 11.8264C18.3727 11.8329 18.3233 11.8751 18.3397 11.9433C18.3513 11.9904 18.3941 12.0164 18.4517 12.018C18.5061 12.005 18.5275 11.9661 18.5242 11.9141C18.5209 11.8605 18.4863 11.8183 18.4336 11.8264ZM18.623 11.1054C18.4731 11.1006 18.5192 11.2061 18.5192 11.2824C18.6016 11.2857 18.707 11.336 18.7333 11.2126C18.7465 11.1558 18.6905 11.1071 18.623 11.1054ZM18.7564 11.6835C18.7481 11.6527 18.7119 11.6137 18.6806 11.6088C18.6279 11.5991 18.5851 11.6316 18.5802 11.6868C18.5752 11.7469 18.6263 11.7631 18.6724 11.7842C18.7234 11.7663 18.7712 11.7404 18.7564 11.6835ZM18.977 12.5636C18.9375 12.5669 18.8931 12.5766 18.8931 12.627C18.8931 12.6968 18.9342 12.7309 19.005 12.7309C19.0594 12.7309 19.0594 12.6854 19.0709 12.6513C19.066 12.5961 19.038 12.5604 18.977 12.5636ZM19.0248 11.6088C18.9705 11.6218 18.9342 11.6478 18.9359 11.7046C18.9392 11.7598 18.9737 11.7988 19.0281 11.7939C19.0775 11.7891 19.117 11.755 19.1187 11.6981C19.1187 11.6381 19.0742 11.6202 19.0248 11.6072V11.6088ZM19.1335 12.8754C19.0742 12.8803 19.0544 12.9257 19.0643 12.9761C19.0758 13.0329 19.122 13.0443 19.1746 13.0345C19.2175 13.0264 19.2405 13.0021 19.2356 12.9582C19.2175 12.9144 19.1878 12.8738 19.1335 12.877V12.8754ZM19.3607 12.1544C19.3492 12.0911 19.3047 12.0473 19.2356 12.057C19.1845 12.0651 19.1499 12.1057 19.1467 12.1609C19.1615 12.2259 19.2076 12.2681 19.2735 12.2567C19.3179 12.2502 19.3706 12.2145 19.3591 12.1544H19.3607ZM19.3723 12.9777C19.3064 12.981 19.2982 13.0297 19.3031 13.08C19.308 13.1239 19.3393 13.1466 19.3838 13.145C19.4381 13.1417 19.4776 13.1174 19.4793 13.0589C19.4612 13.0102 19.4282 12.9745 19.3706 12.9793L19.3723 12.9777ZM24.4393 11.4594C24.3899 11.4594 24.3701 11.4952 24.3685 11.5341C24.3652 11.5861 24.3833 11.6316 24.4475 11.6267C24.5035 11.6234 24.5332 11.5845 24.5447 11.5358C24.5348 11.4806 24.4969 11.4562 24.4409 11.4594H24.4393ZM24.6945 11.867C24.6336 11.8621 24.5924 11.8995 24.5875 11.9466C24.5809 12.0099 24.6303 12.0521 24.6978 12.0603C24.7555 12.0684 24.79 12.0359 24.8049 11.9677C24.79 11.9239 24.767 11.8719 24.6945 11.867ZM19.3723 12.9777C19.3064 12.981 19.2982 13.0297 19.3031 13.08C19.308 13.1239 19.3393 13.1466 19.3838 13.145C19.4381 13.1417 19.4776 13.1174 19.4793 13.0589C19.4612 13.0102 19.4282 12.9745 19.3706 12.9793L19.3723 12.9777ZM19.3607 12.1544C19.3492 12.0911 19.3047 12.0473 19.2356 12.057C19.1845 12.0651 19.1499 12.1057 19.1467 12.1609C19.1615 12.2259 19.2076 12.2681 19.2735 12.2567C19.3179 12.2502 19.3706 12.2145 19.3591 12.1544H19.3607ZM19.1335 12.8754C19.0742 12.8803 19.0544 12.9257 19.0643 12.9761C19.0758 13.0329 19.122 13.0443 19.1746 13.0345C19.2175 13.0264 19.2405 13.0021 19.2356 12.9582C19.2175 12.9144 19.1878 12.8738 19.1335 12.877V12.8754ZM19.0297 11.7956C19.0791 11.7907 19.1187 11.7566 19.1203 11.6998C19.1203 11.6397 19.0758 11.6218 19.0264 11.6088C18.9721 11.6218 18.9359 11.6478 18.9375 11.7046C18.9408 11.7598 18.9754 11.7988 19.0297 11.7939V11.7956ZM18.977 12.5636C18.9375 12.5669 18.8931 12.5766 18.8931 12.627C18.8931 12.6968 18.9342 12.7309 19.005 12.7309C19.0594 12.7309 19.0594 12.6854 19.0709 12.6513C19.066 12.5961 19.038 12.5604 18.977 12.5636ZM18.6806 11.6088C18.6279 11.5991 18.5851 11.6316 18.5802 11.6868C18.5752 11.7469 18.6263 11.7631 18.6724 11.7842C18.7234 11.7663 18.7712 11.7404 18.7564 11.6835C18.7481 11.6527 18.7119 11.6137 18.6806 11.6088ZM18.7333 11.2126C18.7465 11.1558 18.6905 11.1071 18.623 11.1054C18.4731 11.1006 18.5192 11.2061 18.5192 11.2824C18.6016 11.2857 18.707 11.336 18.7333 11.2126ZM18.4336 11.8264C18.3727 11.8329 18.3233 11.8751 18.3397 11.9433C18.3513 11.9904 18.3941 12.0164 18.4517 12.018C18.5061 12.005 18.5275 11.9661 18.5242 11.9141C18.5209 11.8605 18.4863 11.8183 18.4336 11.8264ZM18.5192 11.2824H18.5143V11.2857C18.5143 11.2857 18.5176 11.2857 18.5192 11.2857V11.2808V11.2824ZM18.3974 11.4318C18.5061 11.44 18.5192 11.3653 18.5143 11.2857C18.4435 11.263 18.3661 11.211 18.3299 11.3263C18.3134 11.3766 18.3463 11.4286 18.399 11.4318H18.3974ZM18.236 11.5682C18.1701 11.5682 18.1388 11.6007 18.1421 11.6559C18.1454 11.6916 18.1586 11.7339 18.2097 11.7371C18.2689 11.742 18.3068 11.7063 18.3167 11.6592C18.3315 11.5991 18.2821 11.5796 18.236 11.5682ZM18.096 11.1087C18.045 11.0957 17.9956 11.1038 17.9791 11.159C17.9626 11.2126 17.9956 11.25 18.045 11.2695C18.101 11.2922 18.1388 11.2727 18.1586 11.211C18.1685 11.1655 18.1537 11.1233 18.0977 11.1087H18.096ZM17.9643 11.4676C17.9099 11.4513 17.8688 11.4724 17.8523 11.5228C17.8358 11.5731 17.8523 11.6137 17.9099 11.6283C17.961 11.6413 18.0055 11.6332 18.0269 11.5715C18.0269 11.5293 18.0203 11.4838 17.9659 11.4659L17.9643 11.4676ZM17.6811 11.1412C17.6267 11.1444 17.5921 11.1866 17.6037 11.2419C17.6135 11.2938 17.6547 11.3263 17.7041 11.3344C17.7667 11.3425 17.7897 11.3019 17.793 11.2467C17.7848 11.1834 17.7502 11.1347 17.6827 11.1395L17.6811 11.1412ZM24.6945 11.867C24.6336 11.8621 24.5924 11.8995 24.5875 11.9466C24.5809 12.0099 24.6303 12.0521 24.6978 12.0603C24.7555 12.0684 24.79 12.0359 24.8049 11.9677C24.79 11.9239 24.767 11.8719 24.6945 11.867ZM24.4393 11.4594C24.3899 11.4594 24.3701 11.4952 24.3685 11.5341C24.3652 11.5861 24.3833 11.6316 24.4475 11.6267C24.5035 11.6234 24.5332 11.5845 24.5447 11.5358C24.5348 11.4806 24.4969 11.4562 24.4409 11.4594H24.4393ZM31.6059 13.6516C31.4742 12.8478 30.9291 12.3168 30.2523 11.906C28.6286 10.9236 26.8452 10.4608 24.9218 10.5306C24.5002 10.5452 24.0556 10.5761 23.723 10.8765C23.6011 10.9869 23.5369 10.9593 23.4216 10.8927C22.8601 10.5696 22.259 10.3406 21.6151 10.2286C20.5629 10.0435 19.5106 10.0987 18.4616 10.2562C18.0005 10.326 17.49 10.3195 17.1162 10.5761C16.7375 10.8359 16.4493 10.7612 16.0788 10.628C15.1698 10.2984 14.2361 10.4234 13.3122 10.5793C11.5799 10.87 10.2542 11.7485 9.35018 13.1774C8.70301 14.1988 9.04388 15.428 10.05 16.136C10.9969 16.805 12.1068 17.06 13.2036 17.323C15.2735 17.8199 17.4028 17.8946 19.5221 18.0018C20.3587 17.9969 21.1936 17.9515 22.0186 17.8524C24.1132 17.5991 26.1881 17.2386 28.2416 16.7645C29.0913 16.568 29.946 16.3731 30.6689 15.8681C31.4561 15.3176 31.7607 14.5691 31.6092 13.6532L31.6059 13.6516ZM24.0556 11.3799C24.2022 11.2272 24.4014 11.1623 24.6056 11.1818C24.7917 11.1996 24.7505 11.3912 24.7818 11.5098C24.9185 12.0278 25.0206 12.5506 24.8674 13.0833C24.8576 13.1157 24.8674 13.1628 24.7835 13.1709C24.7752 13.0475 24.5974 12.9485 24.762 12.8007C24.8213 12.7488 24.8065 12.6822 24.7258 12.6773C24.5233 12.6659 24.5562 12.4889 24.4854 12.3866C24.5546 12.3704 24.6534 12.4386 24.683 12.3266C24.6912 12.2973 24.6731 12.2421 24.6501 12.2291C24.5364 12.1674 24.515 12.3055 24.4376 12.3266C24.3471 12.0879 24.2038 11.8768 24.0391 11.6803C23.9403 11.5634 23.9667 11.4708 24.0556 11.3783V11.3799ZM18.4781 10.8213C18.5983 10.8067 18.6839 10.818 18.7712 10.9122C19.3229 11.5098 19.6374 12.1902 19.6127 12.9972C19.6127 13.0362 19.6176 13.0768 19.6077 13.1141C19.5534 13.3073 19.5534 13.5753 19.3459 13.6337C19.2208 13.6678 19.1598 13.3999 19.061 13.2716C18.9243 13.0914 18.7695 12.9128 18.6889 12.7098C18.6148 12.5198 18.5044 12.398 18.3579 12.2535C17.9577 11.8557 17.5822 11.4383 17.052 11.0843C17.5608 10.9642 18.0153 10.8781 18.4781 10.8229V10.8213ZM30.1979 15.4345C29.5096 15.8649 28.7274 16.0337 27.9485 16.2124C25.9543 16.6703 23.9387 17.0178 21.9049 17.2565C20.2961 17.4465 18.679 17.4188 17.0652 17.2597C15.8318 17.1363 14.5951 17.0502 13.388 16.7596C12.6881 16.5907 11.9932 16.3958 11.3246 16.1442C10.7483 15.9282 10.2213 15.6099 9.88702 15.0692C11.3427 15.8259 12.861 16.3634 14.4979 16.6134C16.1166 16.8603 17.7288 17.1006 19.3756 16.8944C19.2356 16.7888 19.0726 16.7693 18.9095 16.7612C18.0878 16.7206 17.2611 16.7239 16.446 16.6345C14.1735 16.3812 11.9405 15.9866 9.96771 14.772C9.75198 14.6389 9.55602 14.509 9.67129 14.2167C11.8417 15.48 14.162 16.2757 16.721 16.3423C16.581 16.1929 16.2467 16.123 15.7511 16.0581C13.691 15.7885 11.761 15.1617 9.99735 14.0998C9.91995 14.0543 9.84255 14.0056 9.77504 13.9488C9.65977 13.8529 9.72893 13.7442 9.78821 13.663C9.86561 13.5558 9.92325 13.6711 9.97594 13.7084C11.2126 14.5739 12.5992 15.1082 14.0928 15.4053C14.2377 15.4345 14.3859 15.4345 14.5819 15.3923C14.4551 15.2852 14.3448 15.2738 14.2328 15.2446C12.8446 14.8743 11.486 14.4359 10.2905 13.637C9.90842 13.382 9.90348 13.3723 10.1867 13.0297C11.104 11.9206 12.3028 11.2743 13.7667 11.0681C14.4699 10.9707 15.1731 10.8765 15.8877 11.0145C16.9532 11.2191 17.7107 11.828 18.3068 12.6513C18.5719 13.0167 18.814 13.3983 19.061 13.775C19.2026 13.9926 19.5073 13.965 19.667 13.6987C19.8926 13.3203 19.9667 12.8998 19.9486 12.4678C19.9239 11.8816 19.7115 11.3523 19.3624 10.8732C19.3344 10.8359 19.3146 10.7937 19.2784 10.7303C20.5283 10.5842 21.7353 10.6589 22.921 10.9691C23.247 11.0551 23.4414 11.336 23.6373 11.5796C24.0408 12.0814 24.3306 12.6432 24.5216 13.2521C24.5628 13.3804 24.5562 13.5883 24.7324 13.6029C24.9284 13.6207 24.9992 13.4259 25.0815 13.283C25.4438 12.6546 25.3927 11.9937 25.2231 11.3344C25.1721 11.1363 25.2363 11.1298 25.4026 11.1331C26.8979 11.159 28.2877 11.552 29.5903 12.2389C29.9493 12.4289 30.2753 12.6578 30.5504 12.9485C31.293 13.7344 31.13 14.8597 30.2012 15.441L30.1979 15.4345ZM24.6978 12.0603C24.7555 12.0684 24.79 12.0359 24.8049 11.9677C24.79 11.9239 24.767 11.8719 24.6945 11.867C24.6336 11.8621 24.5924 11.8995 24.5875 11.9466C24.5809 12.0099 24.6303 12.0521 24.6978 12.0603ZM24.4475 11.6283C24.5035 11.6251 24.5332 11.5861 24.5447 11.5374C24.5348 11.4822 24.4969 11.4578 24.4409 11.4611C24.3915 11.4611 24.3718 11.4968 24.3701 11.5358C24.3668 11.5877 24.3849 11.6332 24.4492 11.6283H24.4475ZM19.3047 13.08C19.3097 13.1239 19.341 13.1466 19.3854 13.145C19.4398 13.1417 19.4793 13.1174 19.4809 13.0589C19.4628 13.0102 19.4299 12.9745 19.3723 12.9793C19.3064 12.9826 19.2982 13.0313 19.3031 13.0816L19.3047 13.08ZM19.2751 12.2567C19.3196 12.2502 19.3723 12.2145 19.3607 12.1544C19.3492 12.0911 19.3047 12.0473 19.2356 12.057C19.1845 12.0651 19.1499 12.1057 19.1467 12.1609C19.1615 12.2259 19.2076 12.2681 19.2735 12.2567H19.2751ZM19.0643 12.9761C19.0758 13.0329 19.122 13.0443 19.1746 13.0345C19.2175 13.0264 19.2405 13.0021 19.2356 12.9582C19.2175 12.9144 19.1878 12.8738 19.1335 12.877C19.0742 12.8819 19.0544 12.9274 19.0643 12.9777V12.9761ZM19.0297 11.7956C19.0791 11.7907 19.1187 11.7566 19.1203 11.6998C19.1203 11.6397 19.0758 11.6218 19.0264 11.6088C18.9721 11.6218 18.9359 11.6478 18.9375 11.7046C18.9408 11.7598 18.9754 11.7988 19.0297 11.7939V11.7956ZM19.005 12.7309C19.0594 12.7309 19.0594 12.6854 19.0709 12.6513C19.066 12.5961 19.038 12.5604 18.977 12.5636C18.9375 12.5669 18.8931 12.5766 18.8931 12.627C18.8931 12.6968 18.9342 12.7309 19.005 12.7309ZM18.6806 11.6088C18.6279 11.5991 18.5851 11.6316 18.5802 11.6868C18.5752 11.7469 18.6263 11.7631 18.6724 11.7842C18.7234 11.7663 18.7712 11.7404 18.7564 11.6835C18.7481 11.6527 18.7119 11.6137 18.6806 11.6088ZM18.7333 11.2126C18.7465 11.1558 18.6905 11.1071 18.623 11.1054C18.4731 11.1006 18.5192 11.2061 18.5192 11.2824C18.6016 11.2857 18.707 11.336 18.7333 11.2126ZM18.4336 11.8264C18.3727 11.8329 18.3233 11.8751 18.3397 11.9433C18.3513 11.9904 18.3941 12.0164 18.4517 12.018C18.5061 12.005 18.5275 11.9661 18.5242 11.9141C18.5209 11.8605 18.4863 11.8183 18.4336 11.8264ZM18.5192 11.2824H18.5143V11.2857C18.5143 11.2857 18.5176 11.2857 18.5192 11.2857V11.2808V11.2824ZM18.3974 11.4318C18.5061 11.44 18.5192 11.3653 18.5143 11.2857C18.4435 11.263 18.3661 11.211 18.3299 11.3263C18.3134 11.3766 18.3463 11.4286 18.399 11.4318H18.3974ZM18.2097 11.7371C18.2689 11.742 18.3068 11.7063 18.3167 11.6592C18.3315 11.5991 18.2821 11.5796 18.236 11.5682C18.1701 11.5682 18.1388 11.6007 18.1421 11.6559C18.1454 11.6916 18.1586 11.7339 18.2097 11.7371ZM18.045 11.2695C18.101 11.2922 18.1388 11.2727 18.1586 11.211C18.1685 11.1655 18.1537 11.1233 18.0977 11.1087C18.0466 11.0957 17.9972 11.1038 17.9808 11.159C17.9643 11.2126 17.9972 11.25 18.0466 11.2695H18.045ZM17.9083 11.6283C17.9594 11.6413 18.0038 11.6332 18.0252 11.5715C18.0252 11.5293 18.0186 11.4838 17.9643 11.4659C17.9099 11.4497 17.8688 11.4708 17.8523 11.5211C17.8358 11.5715 17.8523 11.6121 17.9099 11.6267L17.9083 11.6283ZM17.7914 11.2467C17.7832 11.1834 17.7486 11.1347 17.6811 11.1395C17.6267 11.1428 17.5921 11.185 17.6037 11.2402C17.6135 11.2922 17.6547 11.3247 17.7041 11.3328C17.7667 11.3409 17.7897 11.3003 17.793 11.2451L17.7914 11.2467ZM24.4393 11.4594C24.3899 11.4594 24.3701 11.4952 24.3685 11.5341C24.3652 11.5861 24.3833 11.6316 24.4475 11.6267C24.5035 11.6234 24.5332 11.5845 24.5447 11.5358C24.5348 11.4806 24.4969 11.4562 24.4409 11.4594H24.4393ZM24.6945 11.867C24.6336 11.8621 24.5924 11.8995 24.5875 11.9466C24.5809 12.0099 24.6303 12.0521 24.6978 12.0603C24.7555 12.0684 24.79 12.0359 24.8049 11.9677C24.79 11.9239 24.767 11.8719 24.6945 11.867ZM17.6811 11.1412C17.6267 11.1444 17.5921 11.1866 17.6037 11.2419C17.6135 11.2938 17.6547 11.3263 17.7041 11.3344C17.7667 11.3425 17.7897 11.3019 17.793 11.2467C17.7848 11.1834 17.7502 11.1347 17.6827 11.1395L17.6811 11.1412ZM17.9643 11.4676C17.9099 11.4513 17.8688 11.4724 17.8523 11.5228C17.8358 11.5731 17.8523 11.6137 17.9099 11.6283C17.961 11.6413 18.0055 11.6332 18.0269 11.5715C18.0269 11.5293 18.0203 11.4838 17.9659 11.4659L17.9643 11.4676ZM18.096 11.1087C18.045 11.0957 17.9956 11.1038 17.9791 11.159C17.9626 11.2126 17.9956 11.25 18.045 11.2695C18.101 11.2922 18.1388 11.2727 18.1586 11.211C18.1685 11.1655 18.1537 11.1233 18.0977 11.1087H18.096ZM18.236 11.5682C18.1701 11.5682 18.1388 11.6007 18.1421 11.6559C18.1454 11.6916 18.1586 11.7339 18.2097 11.7371C18.2689 11.742 18.3068 11.7063 18.3167 11.6592C18.3315 11.5991 18.2821 11.5796 18.236 11.5682ZM18.5127 11.2857C18.4418 11.263 18.3645 11.211 18.3282 11.3263C18.3118 11.3766 18.3447 11.4286 18.3974 11.4318C18.5061 11.44 18.5192 11.3653 18.5143 11.2857H18.5127ZM18.5127 11.2824V11.2857C18.5127 11.2857 18.516 11.2857 18.5176 11.2857V11.2808H18.5127V11.2824ZM18.4336 11.8264C18.3727 11.8329 18.3233 11.8751 18.3397 11.9433C18.3513 11.9904 18.3941 12.0164 18.4517 12.018C18.5061 12.005 18.5275 11.9661 18.5242 11.9141C18.5209 11.8605 18.4863 11.8183 18.4336 11.8264ZM18.623 11.1054C18.4731 11.1006 18.5192 11.2061 18.5192 11.2824C18.6016 11.2857 18.707 11.336 18.7333 11.2126C18.7465 11.1558 18.6905 11.1071 18.623 11.1054ZM18.7564 11.6835C18.7481 11.6527 18.7119 11.6137 18.6806 11.6088C18.6279 11.5991 18.5851 11.6316 18.5802 11.6868C18.5752 11.7469 18.6263 11.7631 18.6724 11.7842C18.7234 11.7663 18.7712 11.7404 18.7564 11.6835ZM18.977 12.5636C18.9375 12.5669 18.8931 12.5766 18.8931 12.627C18.8931 12.6968 18.9342 12.7309 19.005 12.7309C19.0594 12.7309 19.0594 12.6854 19.0709 12.6513C19.066 12.5961 19.038 12.5604 18.977 12.5636ZM19.0248 11.6088C18.9705 11.6218 18.9342 11.6478 18.9359 11.7046C18.9392 11.7598 18.9737 11.7988 19.0281 11.7939C19.0775 11.7891 19.117 11.755 19.1187 11.6981C19.1187 11.6381 19.0742 11.6202 19.0248 11.6072V11.6088ZM19.1335 12.8754C19.0742 12.8803 19.0544 12.9257 19.0643 12.9761C19.0758 13.0329 19.122 13.0443 19.1746 13.0345C19.2175 13.0264 19.2405 13.0021 19.2356 12.9582C19.2175 12.9144 19.1878 12.8738 19.1335 12.877V12.8754ZM19.3607 12.1544C19.3492 12.0911 19.3047 12.0473 19.2356 12.057C19.1845 12.0651 19.1499 12.1057 19.1467 12.1609C19.1615 12.2259 19.2076 12.2681 19.2735 12.2567C19.3179 12.2502 19.3706 12.2145 19.3591 12.1544H19.3607ZM19.3723 12.9777C19.3064 12.981 19.2982 13.0297 19.3031 13.08C19.308 13.1239 19.3393 13.1466 19.3838 13.145C19.4381 13.1417 19.4776 13.1174 19.4793 13.0589C19.4612 13.0102 19.4282 12.9745 19.3706 12.9793L19.3723 12.9777ZM24.6945 11.867C24.6336 11.8621 24.5924 11.8995 24.5875 11.9466C24.5809 12.0099 24.6303 12.0521 24.6978 12.0603C24.7555 12.0684 24.79 12.0359 24.8049 11.9677C24.79 11.9239 24.767 11.8719 24.6945 11.867ZM24.4393 11.4594C24.3899 11.4594 24.3701 11.4952 24.3685 11.5341C24.3652 11.5861 24.3833 11.6316 24.4475 11.6267C24.5035 11.6234 24.5332 11.5845 24.5447 11.5358C24.5348 11.4806 24.4969 11.4562 24.4409 11.4594H24.4393ZM19.3723 12.9777C19.3064 12.981 19.2982 13.0297 19.3031 13.08C19.308 13.1239 19.3393 13.1466 19.3838 13.145C19.4381 13.1417 19.4776 13.1174 19.4793 13.0589C19.4612 13.0102 19.4282 12.9745 19.3706 12.9793L19.3723 12.9777ZM19.3607 12.1544C19.3492 12.0911 19.3047 12.0473 19.2356 12.057C19.1845 12.0651 19.1499 12.1057 19.1467 12.1609C19.1615 12.2259 19.2076 12.2681 19.2735 12.2567C19.3179 12.2502 19.3706 12.2145 19.3591 12.1544H19.3607ZM19.1335 12.8754C19.0742 12.8803 19.0544 12.9257 19.0643 12.9761C19.0758 13.0329 19.122 13.0443 19.1746 13.0345C19.2175 13.0264 19.2405 13.0021 19.2356 12.9582C19.2175 12.9144 19.1878 12.8738 19.1335 12.877V12.8754ZM19.0248 11.6088C18.9705 11.6218 18.9342 11.6478 18.9359 11.7046C18.9392 11.7598 18.9737 11.7988 19.0281 11.7939C19.0775 11.7891 19.117 11.755 19.1187 11.6981C19.1187 11.6381 19.0742 11.6202 19.0248 11.6072V11.6088ZM18.977 12.5636C18.9375 12.5669 18.8931 12.5766 18.8931 12.627C18.8931 12.6968 18.9342 12.7309 19.005 12.7309C19.0594 12.7309 19.0594 12.6854 19.0709 12.6513C19.066 12.5961 19.038 12.5604 18.977 12.5636ZM18.7564 11.6835C18.7481 11.6527 18.7119 11.6137 18.6806 11.6088C18.6279 11.5991 18.5851 11.6316 18.5802 11.6868C18.5752 11.7469 18.6263 11.7631 18.6724 11.7842C18.7234 11.7663 18.7712 11.7404 18.7564 11.6835ZM18.623 11.1054C18.4731 11.1006 18.5192 11.2061 18.5192 11.2824C18.6016 11.2857 18.707 11.336 18.7333 11.2126C18.7465 11.1558 18.6905 11.1071 18.623 11.1054ZM18.4336 11.8264C18.3727 11.8329 18.3233 11.8751 18.3397 11.9433C18.3513 11.9904 18.3941 12.0164 18.4517 12.018C18.5061 12.005 18.5275 11.9661 18.5242 11.9141C18.5209 11.8605 18.4863 11.8183 18.4336 11.8264ZM18.5127 11.2824V11.2857C18.5127 11.2857 18.516 11.2857 18.5176 11.2857V11.2808H18.5127V11.2824ZM18.5127 11.2857C18.4418 11.263 18.3645 11.211 18.3282 11.3263C18.3118 11.3766 18.3447 11.4286 18.3974 11.4318C18.5061 11.44 18.5192 11.3653 18.5143 11.2857H18.5127ZM18.236 11.5682C18.1701 11.5682 18.1388 11.6007 18.1421 11.6559C18.1454 11.6916 18.1586 11.7339 18.2097 11.7371C18.2689 11.742 18.3068 11.7063 18.3167 11.6592C18.3315 11.5991 18.2821 11.5796 18.236 11.5682ZM18.096 11.1087C18.045 11.0957 17.9956 11.1038 17.9791 11.159C17.9626 11.2126 17.9956 11.25 18.045 11.2695C18.101 11.2922 18.1388 11.2727 18.1586 11.211C18.1685 11.1655 18.1537 11.1233 18.0977 11.1087H18.096ZM17.9643 11.4676C17.9099 11.4513 17.8688 11.4724 17.8523 11.5228C17.8358 11.5731 17.8523 11.6137 17.9099 11.6283C17.961 11.6413 18.0055 11.6332 18.0269 11.5715C18.0269 11.5293 18.0203 11.4838 17.9659 11.4659L17.9643 11.4676ZM17.6811 11.1412C17.6267 11.1444 17.5921 11.1866 17.6037 11.2419C17.6135 11.2938 17.6547 11.3263 17.7041 11.3344C17.7667 11.3425 17.7897 11.3019 17.793 11.2467C17.7848 11.1834 17.7502 11.1347 17.6827 11.1395L17.6811 11.1412ZM24.4393 11.4594C24.3899 11.4594 24.3701 11.4952 24.3685 11.5341C24.3652 11.5861 24.3833 11.6316 24.4475 11.6267C24.5035 11.6234 24.5332 11.5845 24.5447 11.5358C24.5348 11.4806 24.4969 11.4562 24.4409 11.4594H24.4393ZM24.6945 11.867C24.6336 11.8621 24.5924 11.8995 24.5875 11.9466C24.5809 12.0099 24.6303 12.0521 24.6978 12.0603C24.7555 12.0684 24.79 12.0359 24.8049 11.9677C24.79 11.9239 24.767 11.8719 24.6945 11.867ZM17.6811 11.1412C17.6267 11.1444 17.5921 11.1866 17.6037 11.2419C17.6135 11.2938 17.6547 11.3263 17.7041 11.3344C17.7667 11.3425 17.7897 11.3019 17.793 11.2467C17.7848 11.1834 17.7502 11.1347 17.6827 11.1395L17.6811 11.1412ZM17.9643 11.4676C17.9099 11.4513 17.8688 11.4724 17.8523 11.5228C17.8358 11.5731 17.8523 11.6137 17.9099 11.6283C17.961 11.6413 18.0055 11.6332 18.0269 11.5715C18.0269 11.5293 18.0203 11.4838 17.9659 11.4659L17.9643 11.4676ZM18.096 11.1087C18.045 11.0957 17.9956 11.1038 17.9791 11.159C17.9626 11.2126 17.9956 11.25 18.045 11.2695C18.101 11.2922 18.1388 11.2727 18.1586 11.211C18.1685 11.1655 18.1537 11.1233 18.0977 11.1087H18.096ZM18.236 11.5682C18.1701 11.5682 18.1388 11.6007 18.1421 11.6559C18.1454 11.6916 18.1586 11.7339 18.2097 11.7371C18.2689 11.742 18.3068 11.7063 18.3167 11.6592C18.3315 11.5991 18.2821 11.5796 18.236 11.5682ZM18.5127 11.2857C18.4418 11.263 18.3645 11.211 18.3282 11.3263C18.3118 11.3766 18.3447 11.4286 18.3974 11.4318C18.5061 11.44 18.5192 11.3653 18.5143 11.2857H18.5127ZM18.5127 11.2824V11.2857C18.5127 11.2857 18.516 11.2857 18.5176 11.2857V11.2808H18.5127V11.2824ZM18.4336 11.8264C18.3727 11.8329 18.3233 11.8751 18.3397 11.9433C18.3513 11.9904 18.3941 12.0164 18.4517 12.018C18.5061 12.005 18.5275 11.9661 18.5242 11.9141C18.5209 11.8605 18.4863 11.8183 18.4336 11.8264ZM18.623 11.1054C18.4731 11.1006 18.5192 11.2061 18.5192 11.2824C18.6016 11.2857 18.707 11.336 18.7333 11.2126C18.7465 11.1558 18.6905 11.1071 18.623 11.1054ZM18.7564 11.6835C18.7481 11.6527 18.7119 11.6137 18.6806 11.6088C18.6279 11.5991 18.5851 11.6316 18.5802 11.6868C18.5752 11.7469 18.6263 11.7631 18.6724 11.7842C18.7234 11.7663 18.7712 11.7404 18.7564 11.6835ZM18.977 12.5636C18.9375 12.5669 18.8931 12.5766 18.8931 12.627C18.8931 12.6968 18.9342 12.7309 19.005 12.7309C19.0594 12.7309 19.0594 12.6854 19.0709 12.6513C19.066 12.5961 19.038 12.5604 18.977 12.5636ZM19.0248 11.6088C18.9705 11.6218 18.9342 11.6478 18.9359 11.7046C18.9392 11.7598 18.9737 11.7988 19.0281 11.7939C19.0775 11.7891 19.117 11.755 19.1187 11.6981C19.1187 11.6381 19.0742 11.6202 19.0248 11.6072V11.6088ZM19.1335 12.8754C19.0742 12.8803 19.0544 12.9257 19.0643 12.9761C19.0758 13.0329 19.122 13.0443 19.1746 13.0345C19.2175 13.0264 19.2405 13.0021 19.2356 12.9582C19.2175 12.9144 19.1878 12.8738 19.1335 12.877V12.8754ZM19.3607 12.1544C19.3492 12.0911 19.3047 12.0473 19.2356 12.057C19.1845 12.0651 19.1499 12.1057 19.1467 12.1609C19.1615 12.2259 19.2076 12.2681 19.2735 12.2567C19.3179 12.2502 19.3706 12.2145 19.3591 12.1544H19.3607ZM19.3723 12.9777C19.3064 12.981 19.2982 13.0297 19.3031 13.08C19.308 13.1239 19.3393 13.1466 19.3838 13.145C19.4381 13.1417 19.4776 13.1174 19.4793 13.0589C19.4612 13.0102 19.4282 12.9745 19.3706 12.9793L19.3723 12.9777ZM24.6945 11.867C24.6336 11.8621 24.5924 11.8995 24.5875 11.9466C24.5809 12.0099 24.6303 12.0521 24.6978 12.0603C24.7555 12.0684 24.79 12.0359 24.8049 11.9677C24.79 11.9239 24.767 11.8719 24.6945 11.867ZM24.4393 11.4594C24.3899 11.4594 24.3701 11.4952 24.3685 11.5341C24.3652 11.5861 24.3833 11.6316 24.4475 11.6267C24.5035 11.6234 24.5332 11.5845 24.5447 11.5358C24.5348 11.4806 24.4969 11.4562 24.4409 11.4594H24.4393ZM19.3723 12.9777C19.3064 12.981 19.2982 13.0297 19.3031 13.08C19.308 13.1239 19.3393 13.1466 19.3838 13.145C19.4381 13.1417 19.4776 13.1174 19.4793 13.0589C19.4612 13.0102 19.4282 12.9745 19.3706 12.9793L19.3723 12.9777ZM19.3607 12.1544C19.3492 12.0911 19.3047 12.0473 19.2356 12.057C19.1845 12.0651 19.1499 12.1057 19.1467 12.1609C19.1615 12.2259 19.2076 12.2681 19.2735 12.2567C19.3179 12.2502 19.3706 12.2145 19.3591 12.1544H19.3607ZM19.1335 12.8754C19.0742 12.8803 19.0544 12.9257 19.0643 12.9761C19.0758 13.0329 19.122 13.0443 19.1746 13.0345C19.2175 13.0264 19.2405 13.0021 19.2356 12.9582C19.2175 12.9144 19.1878 12.8738 19.1335 12.877V12.8754ZM19.0248 11.6088C18.9705 11.6218 18.9342 11.6478 18.9359 11.7046C18.9392 11.7598 18.9737 11.7988 19.0281 11.7939C19.0775 11.7891 19.117 11.755 19.1187 11.6981C19.1187 11.6381 19.0742 11.6202 19.0248 11.6072V11.6088ZM18.977 12.5636C18.9375 12.5669 18.8931 12.5766 18.8931 12.627C18.8931 12.6968 18.9342 12.7309 19.005 12.7309C19.0594 12.7309 19.0594 12.6854 19.0709 12.6513C19.066 12.5961 19.038 12.5604 18.977 12.5636ZM18.7564 11.6835C18.7481 11.6527 18.7119 11.6137 18.6806 11.6088C18.6279 11.5991 18.5851 11.6316 18.5802 11.6868C18.5752 11.7469 18.6263 11.7631 18.6724 11.7842C18.7234 11.7663 18.7712 11.7404 18.7564 11.6835ZM18.623 11.1054C18.4731 11.1006 18.5192 11.2061 18.5192 11.2824C18.6016 11.2857 18.707 11.336 18.7333 11.2126C18.7465 11.1558 18.6905 11.1071 18.623 11.1054ZM18.4336 11.8264C18.3727 11.8329 18.3233 11.8751 18.3397 11.9433C18.3513 11.9904 18.3941 12.0164 18.4517 12.018C18.5061 12.005 18.5275 11.9661 18.5242 11.9141C18.5209 11.8605 18.4863 11.8183 18.4336 11.8264ZM18.5127 11.2824V11.2857C18.5127 11.2857 18.516 11.2857 18.5176 11.2857V11.2808H18.5127V11.2824ZM18.5127 11.2857C18.4418 11.263 18.3645 11.211 18.3282 11.3263C18.3118 11.3766 18.3447 11.4286 18.3974 11.4318C18.5061 11.44 18.5192 11.3653 18.5143 11.2857H18.5127ZM18.236 11.5682C18.1701 11.5682 18.1388 11.6007 18.1421 11.6559C18.1454 11.6916 18.1586 11.7339 18.2097 11.7371C18.2689 11.742 18.3068 11.7063 18.3167 11.6592C18.3315 11.5991 18.2821 11.5796 18.236 11.5682ZM18.096 11.1087C18.045 11.0957 17.9956 11.1038 17.9791 11.159C17.9626 11.2126 17.9956 11.25 18.045 11.2695C18.101 11.2922 18.1388 11.2727 18.1586 11.211C18.1685 11.1655 18.1537 11.1233 18.0977 11.1087H18.096ZM17.9643 11.4676C17.9099 11.4513 17.8688 11.4724 17.8523 11.5228C17.8358 11.5731 17.8523 11.6137 17.9099 11.6283C17.961 11.6413 18.0055 11.6332 18.0269 11.5715C18.0269 11.5293 18.0203 11.4838 17.9659 11.4659L17.9643 11.4676ZM17.6811 11.1412C17.6267 11.1444 17.5921 11.1866 17.6037 11.2419C17.6135 11.2938 17.6547 11.3263 17.7041 11.3344C17.7667 11.3425 17.7897 11.3019 17.793 11.2467C17.7848 11.1834 17.7502 11.1347 17.6827 11.1395L17.6811 11.1412Z" fill="#242424"/>
<path d="M11.3886 13.6698C12.0506 13.9133 12.711 14.1634 13.3713 14.4118C13.1391 14.5239 12.9382 14.4167 12.7307 14.3648C12.2334 14.2413 11.7526 14.0741 11.3047 13.8289C11.2355 13.7915 11.1433 13.7493 11.2042 13.6551C11.2602 13.5675 11.3343 13.6503 11.3886 13.6698Z" fill="#242424"/>
<path d="M17.6851 13.2034C17.3886 13.0653 17.1713 12.8266 16.8963 12.6691C16.6987 13.0118 16.6196 13.028 16.2837 12.812C16.1997 12.7584 16.1091 12.7146 16.0218 12.6643C15.9428 12.5896 15.8621 12.5132 15.6497 12.5246C15.7814 12.6269 15.8588 12.687 15.9362 12.7471C16.0037 12.8786 16.091 13.015 15.9395 13.1417C15.7831 13.2732 15.6431 13.192 15.4998 13.1027C15.0618 12.825 14.6353 12.5311 14.0787 12.2745C14.1923 12.497 14.3059 12.622 14.4229 12.7438C14.5497 12.8786 14.6238 13.0247 14.4739 13.1806C14.3372 13.3235 14.1841 13.2716 14.0326 13.1871C13.6983 13.002 13.364 12.8185 13.0248 12.6431C12.9408 12.6009 12.8552 12.5279 12.7366 12.5766C12.8354 12.7487 12.9836 12.8818 13.1219 13.0215C13.1977 13.0978 13.2932 13.1855 13.201 13.2975C13.0989 13.4226 13.0017 13.3268 12.9144 13.2667C12.6823 13.1043 12.4155 13.0134 12.152 12.9127C12.0548 12.8754 11.8852 12.8624 11.9396 12.7276C11.9857 12.6107 12.1289 12.6821 12.2327 12.7097C12.2607 12.7162 12.2887 12.7178 12.3546 12.7276C12.2953 12.5587 12.1487 12.4093 12.2821 12.2404C12.4072 12.0829 12.5769 12.0391 12.7695 12.0732C12.9474 12.1057 13.1219 12.1511 13.2981 12.1901C13.3377 11.7176 13.555 11.5698 14.0474 11.6965C14.1824 11.7306 14.3158 11.789 14.441 11.8491C14.6485 11.9498 14.8296 12.1057 15.0173 11.789C15.1194 11.6169 15.3516 11.6883 15.5229 11.7582C15.6398 11.8069 15.7139 11.8182 15.8028 11.703C15.9115 11.5649 16.0778 11.5877 16.2211 11.6542C16.7975 11.9238 17.2783 12.3054 17.6505 12.8055C17.7378 12.9224 17.7592 13.0491 17.6884 13.2001L17.6851 13.2034Z" fill="#242424"/>
<path d="M23.4378 12.1698C23.479 12.3126 23.4988 12.4848 23.3275 12.5497C23.176 12.6066 23.1068 12.4458 23.0344 12.3484C22.9257 12.2006 22.8582 12.0236 22.7034 11.8937C22.6276 12.0057 22.7083 12.0886 22.7215 12.1762C22.7429 12.3126 22.7281 12.4393 22.5733 12.488C22.4284 12.5335 22.3526 12.4361 22.2901 12.3273C22.1468 12.0756 21.9805 11.8401 21.6989 11.5819C21.7285 11.9018 21.7466 12.1373 21.7746 12.3744C21.7927 12.5254 21.7598 12.6504 21.6067 12.7121C21.437 12.7787 21.3382 12.6699 21.2608 12.5497C21.1703 12.4149 21.0929 12.2721 20.976 12.0756C20.9562 12.35 20.9348 12.5562 20.9282 12.7641C20.9233 12.8924 20.9447 13.0547 20.7767 13.0661C20.5807 13.0807 20.5363 12.9037 20.5363 12.7592C20.5363 12.4344 20.4671 12.1259 20.3469 11.8255C20.2926 11.6907 20.225 11.5608 20.1526 11.4342C20.1065 11.3546 19.9879 11.2848 20.1262 11.1987C20.23 11.1338 20.2926 11.2149 20.3486 11.2864C20.3782 11.3237 20.4078 11.3611 20.4375 11.4001C20.6367 11.1971 20.9233 11.2409 21.2954 11.5316C21.5194 11.0899 21.6133 11.0623 22.0398 11.3627C22.1517 11.4423 22.1896 11.4309 22.2703 11.3302C22.3872 11.1841 22.5535 11.1873 22.7083 11.2815C23.0624 11.4959 23.3292 11.78 23.4428 12.1746L23.4378 12.1698Z" fill="#242424"/>
<path d="M28.555 14.8861C28.5319 14.8406 28.583 14.8195 28.6143 14.8033C28.8876 14.6587 29.1248 14.4574 29.4179 14.3453C29.4887 14.3194 29.5562 14.282 29.6007 14.36C29.6386 14.4265 29.5628 14.4623 29.5183 14.4915C29.245 14.6717 28.9766 14.8601 28.6324 14.9494C28.611 14.9315 28.5715 14.9137 28.5566 14.8845L28.555 14.8861Z" fill="#242424"/>
<path d="M30.4546 14.366C30.2059 14.6681 29.9029 14.9003 29.5423 15.0757C29.0993 15.2932 28.6333 15.4491 28.1606 15.5839C28.0635 15.6115 27.963 15.6261 27.8593 15.6456C27.8181 15.6424 27.7539 15.6619 27.7374 15.6001C27.716 15.5238 27.7901 15.5027 27.8428 15.4832C28.2067 15.3436 28.5756 15.2104 28.9395 15.0675C29.4385 14.8694 29.921 14.647 30.2635 14.2215C30.3228 14.1485 30.3986 14.09 30.4941 14.1679C30.5863 14.2443 30.504 14.3092 30.4562 14.366H30.4546Z" fill="#242424"/>
<path d="M17.7915 11.2486C17.7882 11.3022 17.7668 11.3444 17.7025 11.3363C17.6515 11.3281 17.612 11.2957 17.6021 11.2437C17.5922 11.1885 17.6251 11.1463 17.6795 11.143C17.7486 11.1381 17.7832 11.1852 17.7898 11.2502L17.7915 11.2486Z" fill="#242424"/>
<path d="M18.0224 11.5711C18.001 11.6328 17.9565 11.6393 17.9055 11.6279C17.8478 11.6133 17.8314 11.5727 17.8478 11.5224C17.8643 11.4704 17.9055 11.4493 17.9598 11.4672C18.0158 11.485 18.0224 11.5305 18.0208 11.5727L18.0224 11.5711Z" fill="#242424"/>
<path d="M18.159 11.2097C18.1393 11.2714 18.1014 11.2908 18.0454 11.2681C17.9977 11.2486 17.9647 11.2113 17.9795 11.1577C17.996 11.1025 18.0454 11.0944 18.0965 11.1074C18.1524 11.122 18.1673 11.1642 18.1574 11.2097H18.159Z" fill="#242424"/>
<path d="M18.3157 11.6573C18.3041 11.7044 18.2663 11.7402 18.2086 11.7353C18.1576 11.7304 18.1444 11.6898 18.1411 11.6541C18.1362 11.5989 18.1691 11.5664 18.235 11.5664C18.2811 11.5778 18.3305 11.5973 18.3157 11.6573Z" fill="#242424"/>
<path d="M18.3305 11.324C18.3651 11.2087 18.4441 11.2607 18.515 11.2834C18.5215 11.363 18.5084 11.4377 18.398 11.4296C18.3453 11.4247 18.3141 11.3743 18.3289 11.324H18.3305Z" fill="#242424"/>
<path d="M18.5221 11.2892C18.5221 11.2892 18.5182 11.2892 18.5162 11.2872V11.2833H18.5221V11.2892Z" fill="#242424"/>
<path d="M18.5263 11.911C18.5296 11.963 18.5065 12.0003 18.4538 12.015C18.3962 12.015 18.3534 11.9874 18.3418 11.9403C18.3254 11.8721 18.3748 11.8315 18.4357 11.8233C18.4884 11.8169 18.523 11.8574 18.5263 11.911Z" fill="#242424"/>
<path d="M18.5229 11.2819C18.5229 11.2056 18.4768 11.1 18.6267 11.1049C18.6942 11.1049 18.7485 11.1552 18.737 11.2121C18.7107 11.3355 18.6053 11.2835 18.5229 11.2819Z" fill="#242424"/>
<path d="M18.7566 11.6796C18.7714 11.7364 18.7237 11.7624 18.6726 11.7803C18.6265 11.7608 18.5755 11.7429 18.5804 11.6828C18.5854 11.626 18.6282 11.5935 18.6809 11.6033C18.7122 11.6081 18.7484 11.6471 18.7566 11.678V11.6796Z" fill="#242424"/>
<path d="M19.0744 12.6482C19.0612 12.6823 19.0629 12.7277 19.0085 12.7277C18.9377 12.7277 18.8949 12.6936 18.8965 12.6238C18.8965 12.5735 18.941 12.5637 18.9805 12.5605C19.0414 12.5556 19.0694 12.5913 19.0744 12.6482Z" fill="#242424"/>
<path d="M18.9365 11.7048C18.9332 11.6479 18.9711 11.6203 19.0254 11.609C19.0748 11.622 19.1209 11.6398 19.1193 11.6999C19.1193 11.7551 19.0781 11.7908 19.0287 11.7957C18.9744 11.8006 18.9381 11.7616 18.9365 11.7064V11.7048Z" fill="#242424"/>
<path d="M19.233 12.955C19.238 13.0005 19.2149 13.0232 19.1721 13.0313C19.1194 13.0411 19.0733 13.0313 19.0618 12.9729C19.0519 12.9225 19.0716 12.8771 19.1309 12.8722C19.1853 12.8673 19.2149 12.9096 19.233 12.9534V12.955Z" fill="#242424"/>
<path d="M19.2782 12.2578C19.2123 12.2676 19.1662 12.227 19.1514 12.162C19.1547 12.1068 19.1892 12.0662 19.2403 12.0581C19.3095 12.0483 19.3539 12.0922 19.3654 12.1555C19.377 12.214 19.3243 12.2513 19.2798 12.2578H19.2782Z" fill="#242424"/>
<path d="M19.4829 13.0559C19.4813 13.1144 19.4417 13.1387 19.3874 13.142C19.3429 13.1452 19.3116 13.1209 19.3067 13.077C19.3018 13.0267 19.3084 12.9796 19.3759 12.9747C19.4335 12.9715 19.4664 13.0056 19.4846 13.0543L19.4829 13.0559Z" fill="#242424"/>
<path d="M24.3653 11.5341C24.3686 11.4951 24.3867 11.461 24.4361 11.4594C24.4921 11.4561 24.53 11.4805 24.5399 11.5357C24.5283 11.586 24.4987 11.625 24.4427 11.6266C24.3785 11.6299 24.3604 11.5844 24.3637 11.5341H24.3653Z" fill="#242424"/>
<path d="M24.6846 12.3259C24.655 12.438 24.5545 12.3698 24.487 12.386C24.548 12.3162 24.4771 12.3438 24.4491 12.3389C24.4409 12.3389 24.436 12.3341 24.4393 12.3259C24.5183 12.3048 24.5381 12.1652 24.6517 12.2285C24.6747 12.2415 24.6929 12.2967 24.6846 12.3259Z" fill="#242424"/>
<path d="M24.8033 11.9663C24.7868 12.0345 24.7539 12.0654 24.6962 12.0589C24.6304 12.0508 24.5793 12.0085 24.5859 11.9452C24.5908 11.8997 24.632 11.8608 24.6929 11.8656C24.7654 11.8721 24.7884 11.9225 24.8033 11.9663Z" fill="#242424"/>
<path d="M24.6836 12.3259C24.654 12.438 24.5535 12.3698 24.486 12.386C24.4728 12.3698 24.4613 12.3552 24.4481 12.3389C24.4448 12.3341 24.4415 12.3308 24.4382 12.3259C24.5173 12.3048 24.537 12.1652 24.6507 12.2285C24.6737 12.2415 24.6918 12.2967 24.6836 12.3259Z" fill="#242424"/>
<path d="M17.6851 13.2034C17.3886 13.0653 17.1713 12.8266 16.8963 12.6691C16.6987 13.0118 16.6196 13.028 16.2837 12.812C16.1997 12.7584 16.1091 12.7146 16.0218 12.6643C15.9428 12.5896 15.8621 12.5132 15.6497 12.5246C15.7814 12.6269 15.8588 12.687 15.9362 12.7471C16.0037 12.8786 16.091 13.015 15.9395 13.1417C15.7831 13.2732 15.6431 13.192 15.4998 13.1027C15.0618 12.825 14.6353 12.5311 14.0787 12.2745C14.1923 12.497 14.3059 12.622 14.4229 12.7438C14.5497 12.8786 14.6238 13.0247 14.4739 13.1806C14.3372 13.3235 14.1841 13.2716 14.0326 13.1871C13.6983 13.002 13.364 12.8185 13.0248 12.6431C12.9408 12.6009 12.8552 12.5279 12.7366 12.5766C12.8354 12.7487 12.9836 12.8818 13.1219 13.0215C13.1977 13.0978 13.2932 13.1855 13.201 13.2975C13.0989 13.4226 13.0017 13.3268 12.9144 13.2667C12.6823 13.1043 12.4155 13.0134 12.152 12.9127C12.0548 12.8754 11.8852 12.8624 11.9396 12.7276C11.9857 12.6107 12.1289 12.6821 12.2327 12.7097C12.2607 12.7162 12.2887 12.7178 12.3546 12.7276C12.2953 12.5587 12.1487 12.4093 12.2821 12.2404C12.4072 12.0829 12.5769 12.0391 12.7695 12.0732C12.9474 12.1057 13.1219 12.1511 13.2981 12.1901C13.3377 11.7176 13.555 11.5698 14.0474 11.6965C14.1824 11.7306 14.3158 11.789 14.441 11.8491C14.6485 11.9498 14.8296 12.1057 15.0173 11.789C15.1194 11.6169 15.3516 11.6883 15.5229 11.7582C15.6398 11.8069 15.7139 11.8182 15.8028 11.703C15.9115 11.5649 16.0778 11.5877 16.2211 11.6542C16.7975 11.9238 17.2783 12.3054 17.6505 12.8055C17.7378 12.9224 17.7592 13.0491 17.6884 13.2001L17.6851 13.2034Z" fill="#242424"/>
<path d="M23.3275 12.5497C23.176 12.6066 23.1068 12.4458 23.0344 12.3484C22.9257 12.2006 22.8582 12.0236 22.7034 11.8937C22.6276 12.0057 22.7083 12.0886 22.7215 12.1762C22.7429 12.3126 22.7281 12.4393 22.5733 12.488C22.4284 12.5335 22.3526 12.4361 22.2901 12.3273C22.1468 12.0756 21.9805 11.8401 21.6989 11.5819C21.7285 11.9018 21.7466 12.1373 21.7746 12.3744C21.7927 12.5254 21.7598 12.6504 21.6067 12.7121C21.437 12.7787 21.3382 12.6699 21.2608 12.5497C21.1703 12.4149 21.0929 12.2721 20.976 12.0756C20.9562 12.35 20.9348 12.5562 20.9282 12.7641C20.9233 12.8924 20.9447 13.0547 20.7767 13.0661C20.5807 13.0807 20.5363 12.9037 20.5363 12.7592C20.5363 12.4344 20.4671 12.1259 20.3469 11.8255C20.2926 11.6907 20.225 11.5608 20.1526 11.4342C20.1065 11.3546 19.9879 11.2848 20.1262 11.1987C20.23 11.1338 20.2926 11.2149 20.3486 11.2864C20.3782 11.3237 20.4078 11.3611 20.4375 11.4001C20.6367 11.1971 20.9233 11.2409 21.2954 11.5316C21.5194 11.0899 21.6133 11.0623 22.0398 11.3627C22.1517 11.4423 22.1896 11.4309 22.2703 11.3302C22.3872 11.1841 22.5535 11.1873 22.7083 11.2815C23.0624 11.4959 23.3292 11.78 23.4428 12.1746C23.484 12.3175 23.5037 12.4896 23.3324 12.5546L23.3275 12.5497Z" fill="#242424"/>
<path d="M27.5081 12.8303C27.3714 12.9813 27.2199 13.0073 27.0668 12.8546C27.0124 12.7994 26.9729 12.7296 26.9219 12.6614C26.7835 12.7946 26.744 13.0592 26.4954 13.0186C26.1775 12.9683 26.3126 12.6517 26.2138 12.4714C26.1183 12.4763 26.138 12.5575 26.0968 12.5932C26.0442 12.6403 25.998 12.7004 25.9174 12.663C25.8268 12.6208 25.8169 12.5331 25.8449 12.4617C25.9404 12.2132 25.9108 11.9697 25.8531 11.7212C25.8301 11.6238 25.8317 11.5182 25.9404 11.4646C26.0442 11.4143 26.1347 11.4598 26.2138 11.5328C26.3175 11.627 26.4081 11.731 26.4624 11.8592C26.4987 11.8966 26.5415 11.9307 26.5415 11.9891C26.5513 11.9469 26.5299 11.8982 26.5728 11.8625C26.7951 11.6368 26.907 11.6368 27.1145 11.8544C27.2562 12.0038 27.3286 12.2035 27.5822 12.2668C27.7469 12.3074 27.6991 12.6176 27.5098 12.8287L27.5081 12.8303Z" fill="#242424"/>
<path d="M30.4546 14.366C30.2059 14.6681 29.9029 14.9003 29.5423 15.0757C29.0993 15.2932 28.6333 15.4491 28.1606 15.5839C28.0635 15.6115 27.963 15.6261 27.8593 15.6456C27.8181 15.6424 27.7539 15.6619 27.7374 15.6001C27.716 15.5238 27.7901 15.5027 27.8428 15.4832C28.2067 15.3436 28.5756 15.2104 28.9395 15.0675C29.4385 14.8694 29.921 14.647 30.2635 14.2215C30.3228 14.1485 30.3986 14.09 30.4941 14.1679C30.5863 14.2443 30.504 14.3092 30.4562 14.366H30.4546Z" fill="#242424"/>
<path d="M13.3713 14.4118C13.1391 14.5239 12.9382 14.4167 12.7307 14.3648C12.2334 14.2413 11.7526 14.0741 11.3047 13.8289C11.2355 13.7915 11.1433 13.7493 11.2042 13.6551C11.2602 13.5675 11.3343 13.6503 11.3886 13.6698C12.0506 13.9133 12.711 14.1634 13.3713 14.4118Z" fill="#242424"/>
<path d="M29.5167 14.4931C29.2433 14.6734 28.9749 14.8617 28.6307 14.951C28.6093 14.9332 28.5698 14.9153 28.555 14.8861C28.5319 14.8406 28.583 14.8195 28.6143 14.8033C28.8876 14.6587 29.1248 14.4574 29.4179 14.3453C29.4887 14.3194 29.5562 14.282 29.6007 14.36C29.6386 14.4265 29.5628 14.4623 29.5183 14.4915L29.5167 14.4931Z" fill="#242424"/>
<path d="M19.2782 12.2578C19.2123 12.2676 19.1662 12.227 19.1514 12.162C19.1547 12.1068 19.1892 12.0662 19.2403 12.0581C19.3095 12.0483 19.3539 12.0922 19.3654 12.1555C19.377 12.214 19.3243 12.2513 19.2798 12.2578H19.2782Z" fill="#242424"/>
<path d="M18.5162 11.2833H18.5243V11.2893L18.5162 11.2833Z" fill="#242424"/>
<path d="M18.737 11.2121C18.7107 11.3355 18.6053 11.2835 18.5229 11.2819C18.5229 11.2056 18.4768 11.1 18.6267 11.1049C18.6942 11.1049 18.7485 11.1552 18.737 11.2121Z" fill="#242424"/>
<path d="M18.5263 11.911C18.5296 11.963 18.5065 12.0003 18.4538 12.015C18.3962 12.015 18.3534 11.9874 18.3418 11.9403C18.3254 11.8721 18.3748 11.8315 18.4357 11.8233C18.4884 11.8169 18.523 11.8574 18.5263 11.911Z" fill="#242424"/>
<path d="M18.0224 11.5711C18.001 11.6328 17.9565 11.6393 17.9055 11.6279C17.8478 11.6133 17.8314 11.5727 17.8478 11.5224C17.8643 11.4704 17.9055 11.4493 17.9598 11.4672C18.0158 11.485 18.0224 11.5305 18.0208 11.5727L18.0224 11.5711Z" fill="#242424"/>
<path d="M19.1193 11.6983C19.1193 11.7535 19.0781 11.7892 19.0287 11.7941C18.9744 11.799 18.9381 11.76 18.9365 11.7048C18.9332 11.6479 18.9711 11.6203 19.0254 11.609C19.0748 11.622 19.1209 11.6398 19.1193 11.6999V11.6983Z" fill="#242424"/>
<path d="M17.7915 11.2486C17.7882 11.3022 17.7668 11.3444 17.7025 11.3363C17.6515 11.3281 17.612 11.2957 17.6021 11.2437C17.5922 11.1885 17.6251 11.1463 17.6795 11.143C17.7486 11.1381 17.7832 11.1852 17.7898 11.2502L17.7915 11.2486Z" fill="#242424"/>
<path d="M18.159 11.2097C18.1393 11.2714 18.1014 11.2908 18.0454 11.2681C17.9977 11.2486 17.9647 11.2113 17.9795 11.1577C17.996 11.1025 18.0454 11.0944 18.0965 11.1074C18.1524 11.122 18.1673 11.1642 18.1574 11.2097H18.159Z" fill="#242424"/>
<path d="M18.5126 11.2834C18.5192 11.363 18.5061 11.4377 18.3957 11.4296C18.343 11.4247 18.3117 11.3743 18.3266 11.324C18.3611 11.2087 18.4402 11.2607 18.511 11.2834H18.5126Z" fill="#242424"/>
<path d="M18.5221 11.2892C18.5221 11.2892 18.5182 11.2892 18.5162 11.2872V11.2833L18.5221 11.2892Z" fill="#242424"/>
<path d="M19.0744 12.6482C19.0612 12.6823 19.0629 12.7277 19.0085 12.7277C18.9377 12.7277 18.8949 12.6936 18.8965 12.6238C18.8965 12.5735 18.941 12.5637 18.9805 12.5605C19.0414 12.5556 19.0694 12.5913 19.0744 12.6482Z" fill="#242424"/>
<path d="M18.3157 11.6573C18.3041 11.7044 18.2663 11.7402 18.2086 11.7353C18.1576 11.7304 18.1444 11.6898 18.1411 11.6541C18.1362 11.5989 18.1691 11.5664 18.235 11.5664C18.2811 11.5778 18.3305 11.5973 18.3157 11.6573Z" fill="#242424"/>
<path d="M18.6726 11.7803C18.6265 11.7608 18.5755 11.7429 18.5804 11.6828C18.5854 11.626 18.6282 11.5935 18.6809 11.6033C18.7122 11.6081 18.7484 11.6471 18.7566 11.678C18.7714 11.7348 18.7237 11.7608 18.6726 11.7786V11.7803Z" fill="#242424"/>
<path d="M19.233 12.955C19.238 13.0005 19.2149 13.0232 19.1721 13.0313C19.1194 13.0411 19.0733 13.0313 19.0618 12.9729C19.0519 12.9225 19.0716 12.8771 19.1309 12.8722C19.1853 12.8673 19.2149 12.9096 19.233 12.9534V12.955Z" fill="#242424"/>
<path d="M19.4829 13.0559C19.4813 13.1144 19.4417 13.1387 19.3874 13.142C19.3429 13.1452 19.3116 13.1209 19.3067 13.077C19.3018 13.0267 19.3084 12.9796 19.3759 12.9747C19.4335 12.9715 19.4664 13.0056 19.4846 13.0543L19.4829 13.0559Z" fill="#242424"/>
<path d="M24.8033 11.9663C24.7868 12.0345 24.7539 12.0654 24.6962 12.0589C24.6304 12.0508 24.5793 12.0085 24.5859 11.9452C24.5908 11.8997 24.632 11.8608 24.6929 11.8656C24.7654 11.8721 24.7884 11.9225 24.8033 11.9663Z" fill="#242424"/>
<path d="M24.5422 11.5357C24.5306 11.586 24.501 11.625 24.445 11.6266C24.3808 11.6299 24.3627 11.5844 24.366 11.5341C24.3693 11.4951 24.3874 11.461 24.4368 11.4594C24.4928 11.4561 24.5306 11.4805 24.5405 11.5357H24.5422Z" fill="#242424"/>
<path d="M24.4959 11.7966C24.4844 11.8469 24.4547 11.8843 24.3988 11.8875C24.3345 11.8908 24.3164 11.8453 24.3197 11.795C24.323 11.756 24.3411 11.7219 24.3905 11.7203C24.4465 11.717 24.4844 11.7414 24.4943 11.7966H24.4959Z" fill="#242424"/>
</g>
</svg>
