<svg width="47" height="10" viewBox="0 0 47 10" fill="none" xmlns="http://www.w3.org/2000/svg">
<path d="M41.1381 0.0115356H37.3325C37.0258 0.0115356 36.7764 0.26072 36.7764 0.567042V9.43436C36.7764 9.74068 37.0258 9.98985 37.3325 9.98985H41.2205C44.0101 9.98985 46.2642 7.71073 46.2185 4.91726C46.1727 2.18094 43.8797 0.0138239 41.1404 0.0138239L41.1381 0.0115356ZM41.2205 7.21467H39.5545V2.78216H41.2205C42.4471 2.78216 43.4403 3.77426 43.4403 4.99955C43.4403 6.22484 42.4471 7.21696 41.2205 7.21696V7.21467Z" fill="#5C3F96"/>
<path d="M12.7763 3.90556V8.61468C12.7763 9.38049 12.1539 9.99999 11.3873 9.99999C10.6206 9.99999 9.99817 9.3782 9.99817 8.61468V3.94213C9.99817 3.33178 9.51988 2.80828 8.90887 2.79685C8.29786 2.78542 7.7784 3.28606 7.7784 3.90556V8.61468C7.7784 9.38049 7.15593 9.99999 6.3893 9.99999C5.62267 9.99999 5.00023 9.3782 5.00023 8.61468V3.90328C5.00023 3.42779 4.70043 2.99117 4.24504 2.84944C3.4807 2.6117 2.77817 3.17633 2.77817 3.90328V8.61468C2.77817 9.38049 2.1557 9.99999 1.38907 9.99999C0.622443 9.99999 0 9.3782 0 8.61468V3.90328C0 1.76131 1.73921 0.0239563 3.88576 0.0239563C4.82402 0.0239563 5.68677 0.355425 6.35729 0.910919L6.38475 0.933787C7.05984 0.366863 7.93171 0.0262445 8.88141 0.0262445C11.028 0.0262445 12.7695 1.7636 12.7695 3.90556H12.7763Z" fill="#5C3F96"/>
<path d="M29.2277 3.75926C29.3215 3.20148 29.8021 2.79458 30.3673 2.79458C30.9326 2.79458 31.4154 3.20148 31.507 3.75926L32.356 8.84099C32.4681 9.5085 33.0471 9.99999 33.7245 9.99999C34.5826 9.99999 35.2348 9.2319 35.0929 8.38608L34.2439 3.30435C33.9281 1.41156 32.2873 0.0239563 30.365 0.0239563C28.4427 0.0239563 26.8019 1.41156 26.4861 3.30435L25.6371 8.38608C25.4952 9.2319 26.1474 9.99999 27.0056 9.99999C27.6853 9.99999 28.262 9.51078 28.3741 8.84099L29.2231 3.75926H29.2277Z" fill="#5C3F96"/>
<path d="M19.4369 0C16.677 0 14.439 2.23341 14.439 4.98802C14.439 7.55517 16.3819 9.66742 18.8808 9.94631V9.24223C18.8808 7.30371 17.2148 6.6385 17.2148 4.9903C17.2148 3.76502 18.208 2.7729 19.4346 2.7729C20.6612 2.7729 21.6544 3.76502 21.6544 4.9903C21.6544 6.64078 19.9884 7.30371 19.9884 9.24223V9.94631C22.4874 9.66971 24.4303 7.55746 24.4303 4.98802C24.4303 2.23341 22.1922 0 19.4323 0H19.4369Z" fill="#5C3F96"/>
</svg>
