<svg width="28" height="28" viewBox="0 0 28 28" fill="none" xmlns="http://www.w3.org/2000/svg">
<path d="M13.9951 2.86523C17.0351 2.86523 17.4182 2.87884 18.6182 2.92773C19.8135 2.9811 20.6269 3.17266 21.3379 3.44824C22.0711 3.73718 22.6981 4.11893 23.3203 4.74121C23.9425 5.36356 24.3288 5.98669 24.6133 6.72461C24.8887 7.44015 25.0804 8.25338 25.1338 9.44434C25.1871 10.6401 25.2002 11.0184 25.2002 14.0635C25.2002 17.1081 25.1871 17.4862 25.1338 18.6816C25.0805 19.8773 24.8888 20.6911 24.6133 21.4023C24.3244 22.1358 23.9425 22.7634 23.3203 23.3857C22.6982 24.008 22.0756 24.3942 21.3379 24.6787C20.6224 24.9543 19.8091 25.1459 18.6182 25.1992C17.4226 25.2526 17.0444 25.2656 14 25.2656C10.9556 25.2656 10.5774 25.2526 9.38184 25.1992C8.18648 25.1459 7.37315 24.9543 6.66211 24.6787C5.92887 24.3898 5.30184 24.008 4.67969 23.3857C4.05747 22.7634 3.67116 22.1403 3.38672 21.4023C3.11121 20.6867 2.91954 19.8729 2.86621 18.6816C2.8129 17.4862 2.7998 17.1036 2.7998 14.0635C2.7998 11.0229 2.81288 10.6405 2.86621 9.44922C2.91954 8.25343 3.11116 7.43977 3.38672 6.72852C3.67557 5.99516 4.05761 5.36834 4.67969 4.74609C5.30191 4.12375 5.92434 3.73665 6.66211 3.45215C7.37322 3.17654 8.18682 2.98596 9.37793 2.93262C10.5733 2.87928 10.9556 2.86524 13.9951 2.86523ZM13.998 8.31543C10.8248 8.31543 8.24713 10.889 8.24707 14.0674C8.24707 17.2458 10.8203 19.8193 13.998 19.8193C17.1758 19.8193 19.749 17.2458 19.749 14.0674C19.749 10.889 17.1758 8.31547 13.998 8.31543ZM13.998 10.3291C16.0602 10.3291 17.7314 12.0009 17.7314 14.0635C17.7312 16.1259 16.0601 17.7968 13.998 17.7969C11.936 17.7969 10.2649 16.1259 10.2646 14.0635C10.2646 12.0008 11.9358 10.3291 13.998 10.3291ZM19.9707 6.74121C19.2293 6.74145 18.6279 7.34255 18.6279 8.08398C18.628 8.82538 19.2293 9.42652 19.9707 9.42676C20.7123 9.42676 21.3134 8.82553 21.3135 8.08398C21.3135 7.3424 20.7123 6.74121 19.9707 6.74121Z" fill="#8B909B"/>
</svg>
