<svg width="28" height="29" viewBox="0 0 28 29" fill="none" xmlns="http://www.w3.org/2000/svg">
<path d="M23.1143 3.79883C25.6956 3.79883 27.8066 5.86748 27.8066 8.39648V19.4941C27.8066 22.0144 25.7043 24.083 23.123 24.083H16.6123L15.5039 25.96L14.4121 27.8115C14.208 28.1502 13.7117 28.1503 13.5166 27.8115L12.4258 25.96L11.3164 24.083H4.87695C2.30453 24.083 0.193359 22.0231 0.193359 19.4941V8.3877C0.193359 5.86739 2.29566 3.79883 4.87695 3.79883H23.1143ZM21.9297 11.7461C20.4921 11.7463 19.3281 12.9093 19.3281 14.3369C19.3282 15.7644 20.4921 16.9275 21.9297 16.9277C22.5263 16.9277 23.0745 16.7284 23.5049 16.3975V17.1162C23.5049 17.1162 23.3484 17.8252 22.2529 17.8252V19.1592C22.2605 19.16 23.4402 19.2883 24.4932 18.2705C24.4932 18.2705 24.9822 17.7691 25.0898 17.1074V11.8496H23.5049V12.2754C23.0647 11.9445 22.5165 11.7461 21.9297 11.7461ZM3.7168 16.9844H5.28223V16.502C5.72227 16.88 6.27954 17.1161 6.89551 17.1162C8.2942 17.1162 9.42871 15.9151 9.42871 14.4307C9.42849 12.9464 8.30385 11.7363 6.89551 11.7363C6.28935 11.7364 5.72226 11.9632 5.28223 12.3506V10.1289H3.7168V16.9844ZM15.8066 11.7373C14.2517 11.7375 12.9903 12.9376 12.9902 14.4219C12.9902 15.9062 14.2516 17.1072 15.8066 17.1074C17.3618 17.1074 18.624 15.9063 18.624 14.4219C18.6239 12.9375 17.3715 11.7373 15.8066 11.7373ZM9.60449 9.99707V11.3682C9.60449 11.3682 10.3287 11.4622 10.4658 12.1426V16.9844H12.0791V12.1055C11.9827 11.4342 11.5729 10.928 11.5615 10.9141C10.6421 9.86455 9.60449 9.99707 9.60449 9.99707ZM6.58301 13.0791C7.36539 13.0792 7.99121 13.675 7.99121 14.4219C7.99108 15.1687 7.36531 15.7645 6.58301 15.7646C6.00598 15.7646 5.50721 15.4333 5.29199 14.9512C5.22355 14.7905 5.17387 14.6109 5.17383 14.4219C5.17383 14.2329 5.21381 14.0533 5.29199 13.8926C5.50718 13.4104 6.00592 13.0791 6.58301 13.0791ZM15.8066 13.1357C16.5499 13.1357 17.1571 13.7128 17.1572 14.4219C17.1572 15.131 16.5598 15.708 15.8066 15.708C15.0635 15.7078 14.457 15.1309 14.457 14.4219C14.4571 13.713 15.0635 13.136 15.8066 13.1357ZM22.2236 13.0039C22.7811 13.0039 23.2701 13.3063 23.5049 13.7412C23.6026 13.9208 23.6513 14.1192 23.6514 14.3271C23.6514 14.535 23.5928 14.7429 23.5049 14.9131C23.2701 15.3575 22.7811 15.6514 22.2236 15.6514C21.4314 15.6514 20.7959 15.0552 20.7959 14.3271C20.796 13.5992 21.4412 13.0039 22.2236 13.0039Z" fill="#8B909B"/>
</svg>
