<?xml version="1.0" encoding="UTF-8"?>
<svg id="_레이어_1" data-name="레이어_1" xmlns="http://www.w3.org/2000/svg" version="1.1" viewBox="0 0 28 28">
  <!-- Generator: Adobe Illustrator 29.6.1, SVG Export Plug-In . SVG Version: 2.1.1 Build 9)  -->
  <defs>
    <style>
      .st0 {
        fill: #8b909b;
      }
    </style>
  </defs>
  <path class="st0" d="M14,2.8c3.04,0,3.42.01,4.62.06,1.2.05,2.01.24,2.72.52.73.29,1.36.67,1.98,1.29.62.62,1.01,1.24,1.29,1.98.28.72.47,1.53.52,2.72.05,1.2.07,1.57.07,4.62s-.01,3.42-.07,4.62c-.05,1.2-.24,2.01-.52,2.72-.29.73-.67,1.36-1.29,1.98-.62.62-1.24,1.01-1.98,1.29-.72.28-1.53.47-2.72.52-1.2.05-1.57.07-4.62.07s-3.42-.01-4.62-.07c-1.2-.05-2.01-.24-2.72-.52-.73-.29-1.36-.67-1.98-1.29-.62-.62-1.01-1.25-1.29-1.98-.28-.72-.47-1.53-.52-2.72-.05-1.2-.07-1.58-.07-4.62,0-3.04.01-3.42.07-4.61.05-1.2.24-2.01.52-2.72.29-.73.67-1.36,1.29-1.98.62-.62,1.24-1.01,1.98-1.29.71-.28,1.53-.47,2.72-.52,1.2-.05,1.58-.07,4.62-.07ZM14.1,7c-2.04.01-3.61.7-4.66,2.05-.94,1.2-1.42,2.86-1.44,4.95h0c.02,2.1.5,3.76,1.44,4.96,1.05,1.34,2.62,2.03,4.66,2.05h0c1.81-.01,3.09-.49,4.14-1.54,1.38-1.38,1.34-3.11.88-4.18-.33-.76-.95-1.38-1.8-1.79-.06-.03-.12-.06-.18-.08-.11-1.99-1.19-3.13-3.01-3.14,0,0-.02,0-.02,0-1.09,0-1.99.47-2.55,1.32l1,.69c.42-.63,1.07-.77,1.55-.77,0,0,.01,0,.02,0,.6,0,1.05.18,1.34.52.21.25.36.59.43,1.02-.53-.09-1.11-.12-1.72-.08-1.73.1-2.84,1.11-2.77,2.52.04.71.39,1.33,1,1.73.51.34,1.17.51,1.86.47.9-.05,1.61-.4,2.11-1.03.38-.48.61-1.1.72-1.89.43.26.75.6.93,1.02.3.7.32,1.86-.62,2.8-.82.82-1.81,1.18-3.3,1.19-1.66-.01-2.91-.55-3.72-1.59-.76-.97-1.16-2.38-1.17-4.18.01-1.8.41-3.21,1.17-4.18.81-1.04,2.07-1.57,3.72-1.59,1.67.01,2.94.55,3.79,1.59.41.51.73,1.16.93,1.91l1.17-.31c-.25-.92-.64-1.72-1.18-2.38-1.08-1.34-2.67-2.03-4.71-2.04h0ZM14.67,14.18c.45,0,.88.04,1.26.13-.14,1.8-.99,2.09-1.73,2.13-.76.04-1.55-.3-1.59-1.03-.03-.54.38-1.15,1.63-1.22.14,0,.28-.01.42-.01Z"/>
</svg>