<svg width="28" height="28" viewBox="0 0 28 28" fill="none" xmlns="http://www.w3.org/2000/svg">
<path d="M13.7979 2.1123C21.4258 2.11239 27.615 7.0891 27.6152 13.1533C27.6152 19.2177 21.4455 24.2051 13.8174 24.2051C12.9833 24.2009 12.1505 24.1408 11.3242 24.0254L5.72559 27.8457C5.65918 27.9033 5.57647 27.9382 5.48926 27.9453C5.38419 27.945 5.28296 27.9062 5.2041 27.8359C5.14997 27.7808 5.11116 27.7115 5.09375 27.6357C5.07635 27.56 5.08096 27.4809 5.10547 27.4072L6.40625 22.4893C2.56262 20.5243 0 17.0832 0 13.1533C0.000211342 7.09902 6.16 2.1123 13.7979 2.1123ZM10.8125 10.6045C10.6611 10.5977 10.5107 10.6344 10.3789 10.71C10.2552 10.7915 10.1651 10.9162 10.127 11.0605L8.28906 16.1074C8.25437 16.204 8.19336 16.3097 8.19336 16.4062C8.17853 16.4932 8.17852 16.582 8.19336 16.6689C8.18876 16.7186 8.18876 16.7687 8.19336 16.8184C8.21876 16.9638 8.29593 17.0945 8.41016 17.1865C8.52741 17.2756 8.6708 17.3222 8.81738 17.3184C8.95265 17.3356 9.0897 17.3049 9.20508 17.2314C9.32045 17.1579 9.40709 17.046 9.4502 16.915L9.81445 15.835H12.0957L12.46 16.915C12.5041 17.0435 12.5899 17.1533 12.7031 17.2266C12.8163 17.2996 12.9504 17.3318 13.084 17.3184C13.1709 17.3205 13.2574 17.3046 13.3379 17.2715C13.4184 17.2383 13.492 17.189 13.5527 17.126C13.6153 17.0686 13.6643 16.9976 13.6973 16.9189C13.7302 16.8401 13.7461 16.7545 13.7432 16.6689C13.7461 16.6136 13.7461 16.5583 13.7432 16.5029C13.713 16.3692 13.6758 16.2368 13.6309 16.1074L11.8965 11.1484C11.855 10.9729 11.7495 10.8195 11.6016 10.7188C11.4618 10.6383 11.3023 10.5987 11.1416 10.6045H10.8125ZM3.79688 10.6152C3.61122 10.6127 3.42968 10.671 3.2793 10.7812C3.21129 10.8345 3.15713 10.9034 3.12109 10.9824C3.08505 11.0615 3.06817 11.1484 3.07227 11.2354C3.0681 11.2817 3.06808 11.3286 3.07227 11.375C3.08601 11.4481 3.11476 11.5176 3.15625 11.5791C3.19776 11.6406 3.25114 11.6929 3.31348 11.7324C3.45412 11.817 3.61575 11.8593 3.7793 11.8545H5.09961L5.10742 16.4473C5.09896 16.5108 5.09897 16.5752 5.10742 16.6387C5.13578 16.7937 5.21897 16.9339 5.34082 17.0322C5.46871 17.1327 5.62722 17.1853 5.78906 17.1807C5.88167 17.1844 5.97439 17.1684 6.06055 17.1338C6.14671 17.0992 6.2251 17.0464 6.29004 16.9795C6.35766 16.9095 6.41022 16.826 6.44434 16.7344C6.47845 16.6428 6.49342 16.545 6.48828 16.4473V11.8545H7.76465C7.94711 11.8629 8.12671 11.8074 8.27344 11.6973C8.34159 11.6422 8.39664 11.5716 8.43262 11.4912C8.46842 11.411 8.48448 11.3233 8.48047 11.2354C8.48467 11.1919 8.48464 11.1479 8.48047 11.1045C8.4689 11.0305 8.44118 10.9594 8.39941 10.8975C8.35768 10.8357 8.30307 10.7839 8.23926 10.7461C8.101 10.655 7.9383 10.6094 7.77344 10.6152H3.79688ZM15.0176 10.6152C14.9237 10.6108 14.8298 10.6266 14.7422 10.6611C14.6545 10.6957 14.575 10.7488 14.5088 10.8164C14.3785 10.9615 14.3096 11.1528 14.3184 11.3486L14.3447 16.3154C14.3384 16.4112 14.3384 16.5078 14.3447 16.6035C14.3712 16.7774 14.4643 16.9336 14.6035 17.0391C14.7594 17.1418 14.9442 17.1908 15.1299 17.1787H18.0449C18.2302 17.1811 18.4114 17.1236 18.5615 17.0137C18.6295 16.9604 18.6847 16.8905 18.7207 16.8115C18.7477 16.7523 18.764 16.6887 18.7686 16.624V16.4287C18.7553 16.3553 18.7271 16.2853 18.6855 16.2236C18.644 16.162 18.5901 16.1095 18.5273 16.0703C18.3877 15.9827 18.2258 15.9373 18.0615 15.9395H15.6904V11.3486C15.6989 11.2878 15.6989 11.2258 15.6904 11.165C15.6655 11.0084 15.5856 10.866 15.4658 10.7637C15.3366 10.6656 15.179 10.6134 15.0176 10.6152ZM23.5742 10.3447C23.4709 10.3428 23.369 10.3703 23.2803 10.4238C23.186 10.4999 23.096 10.5817 23.0117 10.6689L20.8223 13.2266V10.8965C20.7943 10.7383 20.7117 10.595 20.5889 10.4932C20.4472 10.3887 20.2737 10.3371 20.0986 10.3467C19.9238 10.3563 19.7575 10.4268 19.6279 10.5459C19.5004 10.6933 19.4324 10.8842 19.4375 11.0801L19.3857 16.2666C19.3772 16.3304 19.3772 16.3951 19.3857 16.459C19.4142 16.6146 19.4969 16.7549 19.6191 16.8535C19.7449 16.9531 19.9009 17.0053 20.0605 17.002C20.1561 17.006 20.2515 16.9907 20.3408 16.9561C20.4301 16.9214 20.5117 16.8684 20.5801 16.8008C20.7076 16.6533 20.7756 16.4625 20.7705 16.2666V14.8037L21.541 13.9883L23.1504 16.6162C23.2171 16.7394 23.3125 16.8446 23.4277 16.9229C23.5342 16.9795 23.6533 17.0069 23.7734 17.002C23.9543 17.0045 24.1311 16.9462 24.2754 16.8359C24.3522 16.7699 24.4125 16.6854 24.4502 16.5908C24.4877 16.4964 24.5021 16.3942 24.4922 16.293V16.249C24.4444 16.1017 24.3741 15.9624 24.2842 15.8369V15.749L22.5537 13.0342L23.9902 11.4395C24.0535 11.3671 24.1084 11.2878 24.1543 11.2031C24.1994 11.1231 24.2233 11.0326 24.2236 10.9404V10.8262C24.2113 10.7556 24.1851 10.688 24.1465 10.6279C24.1078 10.5678 24.0578 10.5157 23.999 10.4756C23.8741 10.3892 23.7255 10.3439 23.5742 10.3447ZM11.8096 14.8438H10.1709L10.9941 12.2109L11.8096 14.8438Z" fill="#838798"/>
</svg>
