<svg width="28" height="28" viewBox="0 0 28 28" fill="none" xmlns="http://www.w3.org/2000/svg">
<path d="M27.4116 7.75117C27.087 6.55917 26.1333 5.62544 24.9362 5.30758C22.7449 4.73145 14 4.73145 14 4.73145C14 4.73145 5.23478 4.73145 3.06377 5.30758C1.86667 5.62544 0.913044 6.55917 0.588406 7.75117C2.90249e-07 9.89676 0 14.3866 0 14.3866C0 14.3866 2.90249e-07 18.8765 0.588406 21.0221C0.913044 22.2141 1.86667 23.1478 3.06377 23.4657C5.25507 24.0418 14 24.0418 14 24.0418C14 24.0418 22.7652 24.0418 24.9362 23.4657C26.1333 23.1478 27.087 22.2141 27.4116 21.0221C28 18.8765 28 14.3866 28 14.3866C28 14.3866 28 9.89676 27.4116 7.75117ZM11.1391 18.4593V10.314L18.4638 14.3866L11.1391 18.4593Z" fill="#8B909B"/>
</svg>
